<svg width="1363" height="163" viewBox="0 0 1363 163" fill="none" xmlns="http://www.w3.org/2000/svg">
<path d="M0 15C0 6.71573 6.71573 0 15 0H37V163H15C6.71573 163 0 156.284 0 148V15Z" fill="#424242"/>
<rect width="1097" height="163" transform="translate(37)" fill="#F0F0F0"/>
<path d="M101.906 53.9219L94.3945 51.2383V48.0859L104.602 52.375V54.6367L101.906 53.9219ZM94.3945 56.1719L101.918 53.4297L104.602 52.7852V55.0352L94.3945 59.3242V56.1719ZM119.895 43.9375V61H116.391V43.9375H119.895ZM125.145 43.9375V46.6914H111.223V43.9375H125.145ZM131.672 61.2344C130.688 61.2344 129.805 61.0781 129.023 60.7656C128.242 60.4453 127.578 60.0039 127.031 59.4414C126.492 58.8789 126.078 58.2266 125.789 57.4844C125.5 56.7344 125.355 55.9375 125.355 55.0938V54.625C125.355 53.6641 125.492 52.7852 125.766 51.9883C126.039 51.1914 126.43 50.5 126.938 49.9141C127.453 49.3281 128.078 48.8789 128.812 48.5664C129.547 48.2461 130.375 48.0859 131.297 48.0859C132.195 48.0859 132.992 48.2344 133.688 48.5312C134.383 48.8281 134.965 49.25 135.434 49.7969C135.91 50.3438 136.27 51 136.512 51.7656C136.754 52.5234 136.875 53.3672 136.875 54.2969V55.7031H126.797V53.4531H133.559V53.1953C133.559 52.7266 133.473 52.3086 133.301 51.9414C133.137 51.5664 132.887 51.2695 132.551 51.0508C132.215 50.832 131.785 50.7227 131.262 50.7227C130.816 50.7227 130.434 50.8203 130.113 51.0156C129.793 51.2109 129.531 51.4844 129.328 51.8359C129.133 52.1875 128.984 52.6016 128.883 53.0781C128.789 53.5469 128.742 54.0625 128.742 54.625V55.0938C128.742 55.6016 128.812 56.0703 128.953 56.5C129.102 56.9297 129.309 57.3008 129.574 57.6133C129.848 57.9258 130.176 58.168 130.559 58.3398C130.949 58.5117 131.391 58.5977 131.883 58.5977C132.492 58.5977 133.059 58.4805 133.582 58.2461C134.113 58.0039 134.57 57.6406 134.953 57.1562L136.594 58.9375C136.328 59.3203 135.965 59.6875 135.504 60.0391C135.051 60.3906 134.504 60.6797 133.863 60.9062C133.223 61.125 132.492 61.2344 131.672 61.2344ZM144.035 58.5977C144.449 58.5977 144.816 58.5195 145.137 58.3633C145.457 58.1992 145.707 57.9727 145.887 57.6836C146.074 57.3867 146.172 57.0391 146.18 56.6406H149.355C149.348 57.5312 149.109 58.3242 148.641 59.0195C148.172 59.707 147.543 60.25 146.754 60.6484C145.965 61.0391 145.082 61.2344 144.105 61.2344C143.121 61.2344 142.262 61.0703 141.527 60.7422C140.801 60.4141 140.195 59.9609 139.711 59.3828C139.227 58.7969 138.863 58.1172 138.621 57.3438C138.379 56.5625 138.258 55.7266 138.258 54.8359V54.4961C138.258 53.5977 138.379 52.7617 138.621 51.9883C138.863 51.207 139.227 50.5273 139.711 49.9492C140.195 49.3633 140.801 48.9062 141.527 48.5781C142.254 48.25 143.105 48.0859 144.082 48.0859C145.121 48.0859 146.031 48.2852 146.812 48.6836C147.602 49.082 148.219 49.6523 148.664 50.3945C149.117 51.1289 149.348 52 149.355 53.0078H146.18C146.172 52.5859 146.082 52.2031 145.91 51.8594C145.746 51.5156 145.504 51.2422 145.184 51.0391C144.871 50.8281 144.484 50.7227 144.023 50.7227C143.531 50.7227 143.129 50.8281 142.816 51.0391C142.504 51.2422 142.262 51.5234 142.09 51.8828C141.918 52.2344 141.797 52.6367 141.727 53.0898C141.664 53.5352 141.633 54.0039 141.633 54.4961V54.8359C141.633 55.3281 141.664 55.8008 141.727 56.2539C141.789 56.707 141.906 57.1094 142.078 57.4609C142.258 57.8125 142.504 58.0898 142.816 58.293C143.129 58.4961 143.535 58.5977 144.035 58.5977ZM154.605 43V61H151.23V43H154.605ZM154.125 54.2148H153.199C153.207 53.332 153.324 52.5195 153.551 51.7773C153.777 51.0273 154.102 50.3789 154.523 49.832C154.945 49.2773 155.449 48.8477 156.035 48.543C156.629 48.2383 157.285 48.0859 158.004 48.0859C158.629 48.0859 159.195 48.1758 159.703 48.3555C160.219 48.5273 160.66 48.8086 161.027 49.1992C161.402 49.582 161.691 50.0859 161.895 50.7109C162.098 51.3359 162.199 52.0938 162.199 52.9844V61H158.801V52.9609C158.801 52.3984 158.719 51.957 158.555 51.6367C158.398 51.3086 158.168 51.0781 157.863 50.9453C157.566 50.8047 157.199 50.7344 156.762 50.7344C156.277 50.7344 155.863 50.8242 155.52 51.0039C155.184 51.1836 154.914 51.4336 154.711 51.7539C154.508 52.0664 154.359 52.4336 154.266 52.8555C154.172 53.2773 154.125 53.7305 154.125 54.2148ZM177.598 54.918H173.25V52.1758H177.598C178.27 52.1758 178.816 52.0664 179.238 51.8477C179.66 51.6211 179.969 51.3086 180.164 50.9102C180.359 50.5117 180.457 50.0625 180.457 49.5625C180.457 49.0547 180.359 48.582 180.164 48.1445C179.969 47.707 179.66 47.3555 179.238 47.0898C178.816 46.8242 178.27 46.6914 177.598 46.6914H174.469V61H170.953V43.9375H177.598C178.934 43.9375 180.078 44.1797 181.031 44.6641C181.992 45.1406 182.727 45.8008 183.234 46.6445C183.742 47.4883 183.996 48.4531 183.996 49.5391C183.996 50.6406 183.742 51.5938 183.234 52.3984C182.727 53.2031 181.992 53.8242 181.031 54.2617C180.078 54.6992 178.934 54.918 177.598 54.918ZM189.586 51.0859V61H186.211V48.3203H189.387L189.586 51.0859ZM193.406 48.2383L193.348 51.3672C193.184 51.3438 192.984 51.3242 192.75 51.3086C192.523 51.2852 192.316 51.2734 192.129 51.2734C191.652 51.2734 191.238 51.3359 190.887 51.4609C190.543 51.5781 190.254 51.7539 190.02 51.9883C189.793 52.2227 189.621 52.5078 189.504 52.8438C189.395 53.1797 189.332 53.5625 189.316 53.9922L188.637 53.7812C188.637 52.9609 188.719 52.207 188.883 51.5195C189.047 50.8242 189.285 50.2188 189.598 49.7031C189.918 49.1875 190.309 48.7891 190.77 48.5078C191.23 48.2266 191.758 48.0859 192.352 48.0859C192.539 48.0859 192.73 48.1016 192.926 48.1328C193.121 48.1562 193.281 48.1914 193.406 48.2383ZM194.109 54.7891V54.543C194.109 53.6133 194.242 52.7578 194.508 51.9766C194.773 51.1875 195.16 50.5039 195.668 49.9258C196.176 49.3477 196.801 48.8984 197.543 48.5781C198.285 48.25 199.137 48.0859 200.098 48.0859C201.059 48.0859 201.914 48.25 202.664 48.5781C203.414 48.8984 204.043 49.3477 204.551 49.9258C205.066 50.5039 205.457 51.1875 205.723 51.9766C205.988 52.7578 206.121 53.6133 206.121 54.543V54.7891C206.121 55.7109 205.988 56.5664 205.723 57.3555C205.457 58.1367 205.066 58.8203 204.551 59.4062C204.043 59.9844 203.418 60.4336 202.676 60.7539C201.934 61.0742 201.082 61.2344 200.121 61.2344C199.16 61.2344 198.305 61.0742 197.555 60.7539C196.812 60.4336 196.184 59.9844 195.668 59.4062C195.16 58.8203 194.773 58.1367 194.508 57.3555C194.242 56.5664 194.109 55.7109 194.109 54.7891ZM197.484 54.543V54.7891C197.484 55.3203 197.531 55.8164 197.625 56.2773C197.719 56.7383 197.867 57.1445 198.07 57.4961C198.281 57.8398 198.555 58.1094 198.891 58.3047C199.227 58.5 199.637 58.5977 200.121 58.5977C200.59 58.5977 200.992 58.5 201.328 58.3047C201.664 58.1094 201.934 57.8398 202.137 57.4961C202.34 57.1445 202.488 56.7383 202.582 56.2773C202.684 55.8164 202.734 55.3203 202.734 54.7891V54.543C202.734 54.0273 202.684 53.543 202.582 53.0898C202.488 52.6289 202.336 52.2227 202.125 51.8711C201.922 51.5117 201.652 51.2305 201.316 51.0273C200.98 50.8242 200.574 50.7227 200.098 50.7227C199.621 50.7227 199.215 50.8242 198.879 51.0273C198.551 51.2305 198.281 51.5117 198.07 51.8711C197.867 52.2227 197.719 52.6289 197.625 53.0898C197.531 53.543 197.484 54.0273 197.484 54.543ZM215.684 58.2344V43H219.082V61H216.023L215.684 58.2344ZM207.668 54.8125V54.5664C207.668 53.5977 207.777 52.7188 207.996 51.9297C208.215 51.1328 208.535 50.4492 208.957 49.8789C209.379 49.3086 209.898 48.8672 210.516 48.5547C211.133 48.2422 211.836 48.0859 212.625 48.0859C213.367 48.0859 214.016 48.2422 214.57 48.5547C215.133 48.8672 215.609 49.3125 216 49.8906C216.398 50.4609 216.719 51.1367 216.961 51.918C217.203 52.6914 217.379 53.5391 217.488 54.4609V55C217.379 55.8828 217.203 56.7031 216.961 57.4609C216.719 58.2188 216.398 58.8828 216 59.4531C215.609 60.0156 215.133 60.4531 214.57 60.7656C214.008 61.0781 213.352 61.2344 212.602 61.2344C211.812 61.2344 211.109 61.0742 210.492 60.7539C209.883 60.4336 209.367 59.9844 208.945 59.4062C208.531 58.8281 208.215 58.1484 207.996 57.3672C207.777 56.5859 207.668 55.7344 207.668 54.8125ZM211.043 54.5664V54.8125C211.043 55.3359 211.082 55.8242 211.16 56.2773C211.246 56.7305 211.383 57.1328 211.57 57.4844C211.766 57.8281 212.016 58.0977 212.32 58.293C212.633 58.4805 213.012 58.5742 213.457 58.5742C214.035 58.5742 214.512 58.4453 214.887 58.1875C215.262 57.9219 215.547 57.5586 215.742 57.0977C215.945 56.6367 216.062 56.1055 216.094 55.5039V53.9688C216.07 53.4766 216 53.0352 215.883 52.6445C215.773 52.2461 215.609 51.9062 215.391 51.625C215.18 51.3438 214.914 51.125 214.594 50.9688C214.281 50.8125 213.91 50.7344 213.48 50.7344C213.043 50.7344 212.668 50.8359 212.355 51.0391C212.043 51.2344 211.789 51.5039 211.594 51.8477C211.406 52.1914 211.266 52.5977 211.172 53.0664C211.086 53.5273 211.043 54.0273 211.043 54.5664ZM229.219 57.9648V48.3203H232.594V61H229.418L229.219 57.9648ZM229.594 55.3633L230.59 55.3398C230.59 56.1836 230.492 56.9688 230.297 57.6953C230.102 58.4141 229.809 59.0391 229.418 59.5703C229.027 60.0938 228.535 60.5039 227.941 60.8008C227.348 61.0898 226.648 61.2344 225.844 61.2344C225.227 61.2344 224.656 61.1484 224.133 60.9766C223.617 60.7969 223.172 60.5195 222.797 60.1445C222.43 59.7617 222.141 59.2734 221.93 58.6797C221.727 58.0781 221.625 57.3555 221.625 56.5117V48.3203H225V56.5352C225 56.9102 225.043 57.2266 225.129 57.4844C225.223 57.7422 225.352 57.9531 225.516 58.1172C225.68 58.2812 225.871 58.3984 226.09 58.4688C226.316 58.5391 226.566 58.5742 226.84 58.5742C227.535 58.5742 228.082 58.4336 228.48 58.1523C228.887 57.8711 229.172 57.4883 229.336 57.0039C229.508 56.5117 229.594 55.9648 229.594 55.3633ZM240.41 58.5977C240.824 58.5977 241.191 58.5195 241.512 58.3633C241.832 58.1992 242.082 57.9727 242.262 57.6836C242.449 57.3867 242.547 57.0391 242.555 56.6406H245.73C245.723 57.5312 245.484 58.3242 245.016 59.0195C244.547 59.707 243.918 60.25 243.129 60.6484C242.34 61.0391 241.457 61.2344 240.48 61.2344C239.496 61.2344 238.637 61.0703 237.902 60.7422C237.176 60.4141 236.57 59.9609 236.086 59.3828C235.602 58.7969 235.238 58.1172 234.996 57.3438C234.754 56.5625 234.633 55.7266 234.633 54.8359V54.4961C234.633 53.5977 234.754 52.7617 234.996 51.9883C235.238 51.207 235.602 50.5273 236.086 49.9492C236.57 49.3633 237.176 48.9062 237.902 48.5781C238.629 48.25 239.48 48.0859 240.457 48.0859C241.496 48.0859 242.406 48.2852 243.188 48.6836C243.977 49.082 244.594 49.6523 245.039 50.3945C245.492 51.1289 245.723 52 245.73 53.0078H242.555C242.547 52.5859 242.457 52.2031 242.285 51.8594C242.121 51.5156 241.879 51.2422 241.559 51.0391C241.246 50.8281 240.859 50.7227 240.398 50.7227C239.906 50.7227 239.504 50.8281 239.191 51.0391C238.879 51.2422 238.637 51.5234 238.465 51.8828C238.293 52.2344 238.172 52.6367 238.102 53.0898C238.039 53.5352 238.008 54.0039 238.008 54.4961V54.8359C238.008 55.3281 238.039 55.8008 238.102 56.2539C238.164 56.707 238.281 57.1094 238.453 57.4609C238.633 57.8125 238.879 58.0898 239.191 58.293C239.504 58.4961 239.91 58.5977 240.41 58.5977ZM253.898 48.3203V50.7109H246.516V48.3203H253.898ZM248.344 45.1914H251.719V57.1797C251.719 57.5469 251.766 57.8281 251.859 58.0234C251.961 58.2188 252.109 58.3555 252.305 58.4336C252.5 58.5039 252.746 58.5391 253.043 58.5391C253.254 58.5391 253.441 58.5312 253.605 58.5156C253.777 58.4922 253.922 58.4688 254.039 58.4453L254.051 60.9297C253.762 61.0234 253.449 61.0977 253.113 61.1523C252.777 61.207 252.406 61.2344 252 61.2344C251.258 61.2344 250.609 61.1133 250.055 60.8711C249.508 60.6211 249.086 60.2227 248.789 59.6758C248.492 59.1289 248.344 58.4102 248.344 57.5195V45.1914ZM268.945 46.8555L264.305 61H260.566L266.906 43.9375H269.285L268.945 46.8555ZM272.801 61L268.148 46.8555L267.773 43.9375H270.176L276.551 61H272.801ZM272.59 54.6484V57.4023H263.578V54.6484H272.59ZM280.852 51.0273V61H277.477V48.3203H280.641L280.852 51.0273ZM280.359 54.2148H279.445C279.445 53.2773 279.566 52.4336 279.809 51.6836C280.051 50.9258 280.391 50.2812 280.828 49.75C281.266 49.2109 281.785 48.8008 282.387 48.5195C282.996 48.2305 283.676 48.0859 284.426 48.0859C285.02 48.0859 285.562 48.1719 286.055 48.3438C286.547 48.5156 286.969 48.7891 287.32 49.1641C287.68 49.5391 287.953 50.0352 288.141 50.6523C288.336 51.2695 288.434 52.0234 288.434 52.9141V61H285.035V52.9023C285.035 52.3398 284.957 51.9023 284.801 51.5898C284.645 51.2773 284.414 51.0586 284.109 50.9336C283.812 50.8008 283.445 50.7344 283.008 50.7344C282.555 50.7344 282.16 50.8242 281.824 51.0039C281.496 51.1836 281.223 51.4336 281.004 51.7539C280.793 52.0664 280.633 52.4336 280.523 52.8555C280.414 53.2773 280.359 53.7305 280.359 54.2148ZM297.844 58.1406V52.4922C297.844 52.0859 297.777 51.7383 297.645 51.4492C297.512 51.1523 297.305 50.9219 297.023 50.7578C296.75 50.5938 296.395 50.5117 295.957 50.5117C295.582 50.5117 295.258 50.5781 294.984 50.7109C294.711 50.8359 294.5 51.0195 294.352 51.2617C294.203 51.4961 294.129 51.7734 294.129 52.0938H290.754C290.754 51.5547 290.879 51.043 291.129 50.5586C291.379 50.0742 291.742 49.6484 292.219 49.2812C292.695 48.9062 293.262 48.6133 293.918 48.4023C294.582 48.1914 295.324 48.0859 296.145 48.0859C297.129 48.0859 298.004 48.25 298.77 48.5781C299.535 48.9062 300.137 49.3984 300.574 50.0547C301.02 50.7109 301.242 51.5312 301.242 52.5156V57.9414C301.242 58.6367 301.285 59.207 301.371 59.6523C301.457 60.0898 301.582 60.4727 301.746 60.8008V61H298.336C298.172 60.6562 298.047 60.2266 297.961 59.7109C297.883 59.1875 297.844 58.6641 297.844 58.1406ZM298.289 53.2773L298.312 55.1875H296.426C295.98 55.1875 295.594 55.2383 295.266 55.3398C294.938 55.4414 294.668 55.5859 294.457 55.7734C294.246 55.9531 294.09 56.1641 293.988 56.4062C293.895 56.6484 293.848 56.9141 293.848 57.2031C293.848 57.4922 293.914 57.7539 294.047 57.9883C294.18 58.2148 294.371 58.3945 294.621 58.5273C294.871 58.6523 295.164 58.7148 295.5 58.7148C296.008 58.7148 296.449 58.6133 296.824 58.4102C297.199 58.207 297.488 57.957 297.691 57.6602C297.902 57.3633 298.012 57.082 298.02 56.8164L298.91 58.2461C298.785 58.5664 298.613 58.8984 298.395 59.2422C298.184 59.5859 297.914 59.9102 297.586 60.2148C297.258 60.5117 296.863 60.7578 296.402 60.9531C295.941 61.1406 295.395 61.2344 294.762 61.2344C293.957 61.2344 293.227 61.0742 292.57 60.7539C291.922 60.4258 291.406 59.9766 291.023 59.4062C290.648 58.8281 290.461 58.1719 290.461 57.4375C290.461 56.7734 290.586 56.1836 290.836 55.668C291.086 55.1523 291.453 54.7188 291.938 54.3672C292.43 54.0078 293.043 53.7383 293.777 53.5586C294.512 53.3711 295.363 53.2773 296.332 53.2773H298.289ZM307.406 43V61H304.02V43H307.406ZM313.957 59.5703L317.32 48.3203H320.941L315.844 62.9102C315.734 63.2305 315.586 63.5742 315.398 63.9414C315.219 64.3086 314.973 64.6562 314.66 64.9844C314.355 65.3203 313.969 65.5938 313.5 65.8047C313.039 66.0156 312.473 66.1211 311.801 66.1211C311.48 66.1211 311.219 66.1016 311.016 66.0625C310.812 66.0234 310.57 65.9688 310.289 65.8984V63.4258C310.375 63.4258 310.465 63.4258 310.559 63.4258C310.652 63.4336 310.742 63.4375 310.828 63.4375C311.273 63.4375 311.637 63.3867 311.918 63.2852C312.199 63.1836 312.426 63.0273 312.598 62.8164C312.77 62.6133 312.906 62.3477 313.008 62.0195L313.957 59.5703ZM312.551 48.3203L315.305 57.5078L315.785 61.082L313.488 61.3281L308.93 48.3203H312.551ZM332.379 58.3633V61H322.746V58.3633H332.379ZM332.191 50.2656L324.105 61H321.844V58.9961L329.895 48.3203H332.191V50.2656ZM330.996 48.3203V50.9688H322.031V48.3203H330.996ZM340.148 61.2344C339.164 61.2344 338.281 61.0781 337.5 60.7656C336.719 60.4453 336.055 60.0039 335.508 59.4414C334.969 58.8789 334.555 58.2266 334.266 57.4844C333.977 56.7344 333.832 55.9375 333.832 55.0938V54.625C333.832 53.6641 333.969 52.7852 334.242 51.9883C334.516 51.1914 334.906 50.5 335.414 49.9141C335.93 49.3281 336.555 48.8789 337.289 48.5664C338.023 48.2461 338.852 48.0859 339.773 48.0859C340.672 48.0859 341.469 48.2344 342.164 48.5312C342.859 48.8281 343.441 49.25 343.91 49.7969C344.387 50.3438 344.746 51 344.988 51.7656C345.23 52.5234 345.352 53.3672 345.352 54.2969V55.7031H335.273V53.4531H342.035V53.1953C342.035 52.7266 341.949 52.3086 341.777 51.9414C341.613 51.5664 341.363 51.2695 341.027 51.0508C340.691 50.832 340.262 50.7227 339.738 50.7227C339.293 50.7227 338.91 50.8203 338.59 51.0156C338.27 51.2109 338.008 51.4844 337.805 51.8359C337.609 52.1875 337.461 52.6016 337.359 53.0781C337.266 53.5469 337.219 54.0625 337.219 54.625V55.0938C337.219 55.6016 337.289 56.0703 337.43 56.5C337.578 56.9297 337.785 57.3008 338.051 57.6133C338.324 57.9258 338.652 58.168 339.035 58.3398C339.426 58.5117 339.867 58.5977 340.359 58.5977C340.969 58.5977 341.535 58.4805 342.059 58.2461C342.59 58.0039 343.047 57.6406 343.43 57.1562L345.07 58.9375C344.805 59.3203 344.441 59.6875 343.98 60.0391C343.527 60.3906 342.98 60.6797 342.34 60.9062C341.699 61.125 340.969 61.2344 340.148 61.2344ZM350.648 51.0859V61H347.273V48.3203H350.449L350.648 51.0859ZM354.469 48.2383L354.41 51.3672C354.246 51.3438 354.047 51.3242 353.812 51.3086C353.586 51.2852 353.379 51.2734 353.191 51.2734C352.715 51.2734 352.301 51.3359 351.949 51.4609C351.605 51.5781 351.316 51.7539 351.082 51.9883C350.855 52.2227 350.684 52.5078 350.566 52.8438C350.457 53.1797 350.395 53.5625 350.379 53.9922L349.699 53.7812C349.699 52.9609 349.781 52.207 349.945 51.5195C350.109 50.8242 350.348 50.2188 350.66 49.7031C350.98 49.1875 351.371 48.7891 351.832 48.5078C352.293 48.2266 352.82 48.0859 353.414 48.0859C353.602 48.0859 353.793 48.1016 353.988 48.1328C354.184 48.1562 354.344 48.1914 354.469 48.2383Z" fill="#888888"/>
<path d="M109.219 107.422H100.734V101.07H109.219C110.375 101.07 111.312 100.875 112.031 100.484C112.75 100.094 113.273 99.5547 113.602 98.8672C113.945 98.1641 114.117 97.375 114.117 96.5C114.117 95.5625 113.945 94.6953 113.602 93.8984C113.273 93.1016 112.75 92.4609 112.031 91.9766C111.312 91.4766 110.375 91.2266 109.219 91.2266H103.828V119H95.6016V84.875H109.219C111.953 84.875 114.305 85.375 116.273 86.375C118.258 87.375 119.781 88.75 120.844 90.5C121.906 92.2344 122.438 94.2188 122.438 96.4531C122.438 98.6562 121.906 100.578 120.844 102.219C119.781 103.859 118.258 105.141 116.273 106.062C114.305 106.969 111.953 107.422 109.219 107.422ZM134.461 99.9219V119H126.562V93.6406H133.945L134.461 99.9219ZM141.961 93.4531L141.82 100.789C141.508 100.758 141.086 100.719 140.555 100.672C140.023 100.625 139.578 100.602 139.219 100.602C138.297 100.602 137.5 100.711 136.828 100.93C136.172 101.133 135.625 101.445 135.188 101.867C134.766 102.273 134.453 102.789 134.25 103.414C134.062 104.039 133.977 104.766 133.992 105.594L132.562 104.656C132.562 102.953 132.727 101.406 133.055 100.016C133.398 98.6094 133.883 97.3984 134.508 96.3828C135.133 95.3516 135.891 94.5625 136.781 94.0156C137.672 93.4531 138.672 93.1719 139.781 93.1719C140.172 93.1719 140.555 93.1953 140.93 93.2422C141.32 93.2891 141.664 93.3594 141.961 93.4531ZM142.852 106.578V106.086C142.852 104.227 143.117 102.516 143.648 100.953C144.18 99.375 144.961 98.0078 145.992 96.8516C147.023 95.6953 148.297 94.7969 149.812 94.1562C151.328 93.5 153.078 93.1719 155.062 93.1719C157.062 93.1719 158.82 93.5 160.336 94.1562C161.867 94.7969 163.148 95.6953 164.18 96.8516C165.211 98.0078 165.992 99.375 166.523 100.953C167.055 102.516 167.32 104.227 167.32 106.086V106.578C167.32 108.422 167.055 110.133 166.523 111.711C165.992 113.273 165.211 114.641 164.18 115.812C163.148 116.969 161.875 117.867 160.359 118.508C158.844 119.148 157.094 119.469 155.109 119.469C153.125 119.469 151.367 119.148 149.836 118.508C148.305 117.867 147.023 116.969 145.992 115.812C144.961 114.641 144.18 113.273 143.648 111.711C143.117 110.133 142.852 108.422 142.852 106.578ZM150.75 106.086V106.578C150.75 107.531 150.82 108.422 150.961 109.25C151.102 110.078 151.336 110.805 151.664 111.43C151.992 112.039 152.438 112.516 153 112.859C153.562 113.203 154.266 113.375 155.109 113.375C155.938 113.375 156.625 113.203 157.172 112.859C157.734 112.516 158.18 112.039 158.508 111.43C158.836 110.805 159.07 110.078 159.211 109.25C159.352 108.422 159.422 107.531 159.422 106.578V106.086C159.422 105.164 159.352 104.297 159.211 103.484C159.07 102.656 158.836 101.93 158.508 101.305C158.18 100.664 157.734 100.164 157.172 99.8047C156.609 99.4453 155.906 99.2656 155.062 99.2656C154.234 99.2656 153.539 99.4453 152.977 99.8047C152.43 100.164 151.992 100.664 151.664 101.305C151.336 101.93 151.102 102.656 150.961 103.484C150.82 104.297 150.75 105.164 150.75 106.086ZM184.195 93.6406V99.125H168.914V93.6406H184.195ZM172.125 87.3359H180.023V110.727C180.023 111.398 180.102 111.922 180.258 112.297C180.414 112.656 180.68 112.914 181.055 113.07C181.445 113.211 181.961 113.281 182.602 113.281C183.055 113.281 183.43 113.273 183.727 113.258C184.023 113.227 184.305 113.188 184.57 113.141V118.789C183.898 119.008 183.195 119.172 182.461 119.281C181.727 119.406 180.945 119.469 180.117 119.469C178.43 119.469 176.984 119.203 175.781 118.672C174.594 118.141 173.688 117.305 173.062 116.164C172.438 115.023 172.125 113.539 172.125 111.711V87.3359ZM185.648 106.578V106.086C185.648 104.227 185.914 102.516 186.445 100.953C186.977 99.375 187.758 98.0078 188.789 96.8516C189.82 95.6953 191.094 94.7969 192.609 94.1562C194.125 93.5 195.875 93.1719 197.859 93.1719C199.859 93.1719 201.617 93.5 203.133 94.1562C204.664 94.7969 205.945 95.6953 206.977 96.8516C208.008 98.0078 208.789 99.375 209.32 100.953C209.852 102.516 210.117 104.227 210.117 106.086V106.578C210.117 108.422 209.852 110.133 209.32 111.711C208.789 113.273 208.008 114.641 206.977 115.812C205.945 116.969 204.672 117.867 203.156 118.508C201.641 119.148 199.891 119.469 197.906 119.469C195.922 119.469 194.164 119.148 192.633 118.508C191.102 117.867 189.82 116.969 188.789 115.812C187.758 114.641 186.977 113.273 186.445 111.711C185.914 110.133 185.648 108.422 185.648 106.578ZM193.547 106.086V106.578C193.547 107.531 193.617 108.422 193.758 109.25C193.898 110.078 194.133 110.805 194.461 111.43C194.789 112.039 195.234 112.516 195.797 112.859C196.359 113.203 197.062 113.375 197.906 113.375C198.734 113.375 199.422 113.203 199.969 112.859C200.531 112.516 200.977 112.039 201.305 111.43C201.633 110.805 201.867 110.078 202.008 109.25C202.148 108.422 202.219 107.531 202.219 106.578V106.086C202.219 105.164 202.148 104.297 202.008 103.484C201.867 102.656 201.633 101.93 201.305 101.305C200.977 100.664 200.531 100.164 199.969 99.8047C199.406 99.4453 198.703 99.2656 197.859 99.2656C197.031 99.2656 196.336 99.4453 195.773 99.8047C195.227 100.164 194.789 100.664 194.461 101.305C194.133 101.93 193.898 102.656 193.758 103.484C193.617 104.297 193.547 105.164 193.547 106.086ZM226.992 93.6406V99.125H211.711V93.6406H226.992ZM214.922 87.3359H222.82V110.727C222.82 111.398 222.898 111.922 223.055 112.297C223.211 112.656 223.477 112.914 223.852 113.07C224.242 113.211 224.758 113.281 225.398 113.281C225.852 113.281 226.227 113.273 226.523 113.258C226.82 113.227 227.102 113.188 227.367 113.141V118.789C226.695 119.008 225.992 119.172 225.258 119.281C224.523 119.406 223.742 119.469 222.914 119.469C221.227 119.469 219.781 119.203 218.578 118.672C217.391 118.141 216.484 117.305 215.859 116.164C215.234 115.023 214.922 113.539 214.922 111.711V87.3359ZM237.914 116.023L244.477 93.6406H252.961L242.766 122.773C242.547 123.414 242.258 124.102 241.898 124.836C241.539 125.586 241.047 126.297 240.422 126.969C239.797 127.641 238.992 128.188 238.008 128.609C237.039 129.031 235.836 129.242 234.398 129.242C233.633 129.242 233.07 129.203 232.711 129.125C232.367 129.062 231.836 128.945 231.117 128.773V123.125C231.32 123.125 231.492 123.125 231.633 123.125C231.789 123.125 231.961 123.125 232.148 123.125C232.992 123.125 233.664 123.039 234.164 122.867C234.68 122.695 235.07 122.445 235.336 122.117C235.617 121.789 235.836 121.391 235.992 120.922L237.914 116.023ZM236.25 93.6406L241.242 111.383L242.109 119.75H236.812L227.789 93.6406H236.25ZM262.992 98.5156V128.75H255.094V93.6406H262.453L262.992 98.5156ZM278.555 106.016V106.508C278.555 108.352 278.344 110.062 277.922 111.641C277.5 113.219 276.875 114.594 276.047 115.766C275.219 116.938 274.188 117.852 272.953 118.508C271.734 119.148 270.32 119.469 268.711 119.469C267.195 119.469 265.891 119.133 264.797 118.461C263.703 117.789 262.789 116.859 262.055 115.672C261.32 114.484 260.727 113.125 260.273 111.594C259.82 110.062 259.461 108.445 259.195 106.742V106.109C259.461 104.281 259.82 102.586 260.273 101.023C260.727 99.4453 261.32 98.0703 262.055 96.8984C262.789 95.7266 263.695 94.8125 264.773 94.1562C265.867 93.5 267.172 93.1719 268.688 93.1719C270.297 93.1719 271.711 93.4766 272.93 94.0859C274.164 94.6953 275.195 95.5703 276.023 96.7109C276.867 97.8359 277.5 99.1875 277.922 100.766C278.344 102.344 278.555 104.094 278.555 106.016ZM270.656 106.508V106.016C270.656 105.031 270.586 104.133 270.445 103.32C270.305 102.492 270.078 101.773 269.766 101.164C269.469 100.555 269.07 100.086 268.57 99.7578C268.07 99.4297 267.453 99.2656 266.719 99.2656C265.875 99.2656 265.164 99.3984 264.586 99.6641C264.023 99.9141 263.57 100.305 263.227 100.836C262.898 101.352 262.664 102 262.523 102.781C262.398 103.547 262.344 104.445 262.359 105.477V107.398C262.328 108.586 262.445 109.633 262.711 110.539C262.977 111.43 263.438 112.125 264.094 112.625C264.75 113.125 265.641 113.375 266.766 113.375C267.516 113.375 268.141 113.203 268.641 112.859C269.141 112.5 269.539 112.008 269.836 111.383C270.133 110.742 270.344 110.008 270.469 109.18C270.594 108.352 270.656 107.461 270.656 106.508ZM290.414 93.6406V119H282.492V93.6406H290.414ZM282.023 87.1016C282.023 85.9766 282.43 85.0547 283.242 84.3359C284.055 83.6172 285.109 83.2578 286.406 83.2578C287.703 83.2578 288.758 83.6172 289.57 84.3359C290.383 85.0547 290.789 85.9766 290.789 87.1016C290.789 88.2266 290.383 89.1484 289.57 89.8672C288.758 90.5859 287.703 90.9453 286.406 90.9453C285.109 90.9453 284.055 90.5859 283.242 89.8672C282.43 89.1484 282.023 88.2266 282.023 87.1016ZM303.047 99.0547V119H295.148V93.6406H302.555L303.047 99.0547ZM302.109 105.453L300.258 105.5C300.258 103.562 300.492 101.836 300.961 100.32C301.43 98.7891 302.094 97.4922 302.953 96.4297C303.812 95.3672 304.836 94.5625 306.023 94.0156C307.227 93.4531 308.562 93.1719 310.031 93.1719C311.203 93.1719 312.273 93.3438 313.242 93.6875C314.227 94.0312 315.07 94.5859 315.773 95.3516C316.492 96.1172 317.039 97.1328 317.414 98.3984C317.805 99.6484 318 101.195 318 103.039V119H310.055V103.016C310.055 102 309.914 101.227 309.633 100.695C309.352 100.148 308.945 99.7734 308.414 99.5703C307.883 99.3672 307.234 99.2656 306.469 99.2656C305.656 99.2656 304.969 99.4219 304.406 99.7344C303.844 100.047 303.391 100.484 303.047 101.047C302.719 101.594 302.477 102.242 302.32 102.992C302.18 103.742 302.109 104.562 302.109 105.453ZM338.32 93.6406H345.492V118.016C345.492 120.359 344.953 122.344 343.875 123.969C342.797 125.609 341.289 126.852 339.352 127.695C337.43 128.555 335.18 128.984 332.602 128.984C331.461 128.984 330.297 128.836 329.109 128.539C327.922 128.258 326.812 127.836 325.781 127.273C324.75 126.711 323.883 126.016 323.18 125.188L326.484 120.547C327.125 121.266 327.93 121.875 328.898 122.375C329.867 122.891 331.008 123.148 332.32 123.148C333.461 123.148 334.414 122.945 335.18 122.539C335.961 122.133 336.555 121.539 336.961 120.758C337.367 119.992 337.57 119.062 337.57 117.969V99.6406L338.32 93.6406ZM321.469 106.625V106.133C321.469 104.211 321.703 102.461 322.172 100.883C322.656 99.2891 323.344 97.9219 324.234 96.7812C325.141 95.625 326.234 94.7344 327.516 94.1094C328.797 93.4844 330.242 93.1719 331.852 93.1719C333.586 93.1719 335.008 93.5078 336.117 94.1797C337.242 94.8359 338.141 95.7578 338.812 96.9453C339.5 98.1328 340.031 99.5234 340.406 101.117C340.797 102.695 341.125 104.398 341.391 106.227V106.812C341.125 108.531 340.758 110.156 340.289 111.688C339.836 113.203 339.242 114.547 338.508 115.719C337.773 116.891 336.852 117.812 335.742 118.484C334.648 119.141 333.336 119.469 331.805 119.469C330.211 119.469 328.773 119.148 327.492 118.508C326.227 117.867 325.141 116.969 324.234 115.812C323.344 114.656 322.656 113.297 322.172 111.734C321.703 110.172 321.469 108.469 321.469 106.625ZM329.367 106.133V106.625C329.367 107.578 329.453 108.461 329.625 109.273C329.812 110.086 330.094 110.805 330.469 111.43C330.844 112.039 331.305 112.516 331.852 112.859C332.414 113.203 333.07 113.375 333.82 113.375C334.961 113.375 335.883 113.133 336.586 112.648C337.289 112.164 337.797 111.477 338.109 110.586C338.422 109.695 338.555 108.648 338.508 107.445V105.594C338.539 104.562 338.469 103.656 338.297 102.875C338.125 102.078 337.852 101.414 337.477 100.883C337.117 100.352 336.633 99.9531 336.023 99.6875C335.43 99.4062 334.711 99.2656 333.867 99.2656C333.133 99.2656 332.484 99.4375 331.922 99.7812C331.359 100.125 330.891 100.609 330.516 101.234C330.141 101.844 329.852 102.57 329.648 103.414C329.461 104.242 329.367 105.148 329.367 106.133Z" fill="black"/>
<path d="M1134 0H1348C1356.28 0 1363 6.71573 1363 15V148C1363 156.284 1356.28 163 1348 163H1134V0Z" fill="#004AAD"/>
<path fill-rule="evenodd" clip-rule="evenodd" d="M1202.75 46.5018C1202.75 45.3973 1203.65 44.5018 1204.75 44.5018H1292.25C1293.35 44.5018 1294.25 45.3973 1294.25 46.5018V116.498C1294.25 117.603 1293.35 118.498 1292.25 118.498H1204.75C1203.65 118.498 1202.75 117.603 1202.75 116.498V46.5018ZM1206.75 48.5018V52.9963H1290.25V48.5018H1206.75ZM1290.25 56.9963H1235.19V114.498H1290.25V56.9963ZM1231.19 114.498V56.9963H1206.75V114.498H1231.19Z" fill="white"/>
<path fill-rule="evenodd" clip-rule="evenodd" d="M1209.72 62.3022C1209.72 61.1976 1210.62 60.3022 1211.72 60.3022H1225.72C1226.83 60.3022 1227.72 61.1976 1227.72 62.3022V81.6974C1227.72 82.802 1226.83 83.6974 1225.72 83.6974H1211.72C1210.62 83.6974 1209.72 82.802 1209.72 81.6974V62.3022ZM1213.72 64.3022V79.6974H1223.72V64.3022H1213.72ZM1239.33 63.1982C1239.33 62.0936 1240.22 61.1982 1241.33 61.1982H1284.25C1285.36 61.1982 1286.25 62.0936 1286.25 63.1982V109.407C1286.25 110.511 1285.36 111.407 1284.25 111.407H1241.33C1240.22 111.407 1239.33 110.511 1239.33 109.407V63.1982ZM1243.33 65.1982V107.407H1282.25V65.1982H1243.33ZM1209.56 93.4381C1209.56 92.3336 1210.46 91.4381 1211.56 91.4381H1220.48C1221.59 91.4381 1222.48 92.3336 1222.48 93.4381C1222.48 94.5427 1221.59 95.4381 1220.48 95.4381H1211.56C1210.46 95.4381 1209.56 94.5427 1209.56 93.4381ZM1209.56 100.438C1209.56 99.3335 1210.46 98.4381 1211.56 98.4381H1226.1C1227.21 98.4381 1228.1 99.3335 1228.1 100.438C1228.1 101.543 1227.21 102.438 1226.1 102.438H1211.56C1210.46 102.438 1209.56 101.543 1209.56 100.438ZM1209.56 107.438C1209.56 106.334 1210.46 105.438 1211.56 105.438H1220.48C1221.59 105.438 1222.48 106.334 1222.48 107.438C1222.48 108.543 1221.59 109.438 1220.48 109.438H1211.56C1210.46 109.438 1209.56 108.543 1209.56 107.438Z" fill="white"/>
</svg>
