<svg width="1363" height="163" viewBox="0 0 1363 163" fill="none" xmlns="http://www.w3.org/2000/svg">
<path d="M0 15C0 6.71573 6.71573 0 15 0H37V163H15C6.71573 163 0 156.284 0 148V15Z" fill="#424242"/>
<rect width="1097" height="163" transform="translate(37)" fill="#F0F0F0"/>
<path d="M101.906 53.9219L94.3945 51.2383V48.0859L104.602 52.375V54.6367L101.906 53.9219ZM94.3945 56.1719L101.918 53.4297L104.602 52.7852V55.0352L94.3945 59.3242V56.1719ZM119.895 43.9375V61H116.391V43.9375H119.895ZM125.145 43.9375V46.6914H111.223V43.9375H125.145ZM131.672 61.2344C130.688 61.2344 129.805 61.0781 129.023 60.7656C128.242 60.4453 127.578 60.0039 127.031 59.4414C126.492 58.8789 126.078 58.2266 125.789 57.4844C125.5 56.7344 125.355 55.9375 125.355 55.0938V54.625C125.355 53.6641 125.492 52.7852 125.766 51.9883C126.039 51.1914 126.43 50.5 126.938 49.9141C127.453 49.3281 128.078 48.8789 128.812 48.5664C129.547 48.2461 130.375 48.0859 131.297 48.0859C132.195 48.0859 132.992 48.2344 133.688 48.5312C134.383 48.8281 134.965 49.25 135.434 49.7969C135.91 50.3438 136.27 51 136.512 51.7656C136.754 52.5234 136.875 53.3672 136.875 54.2969V55.7031H126.797V53.4531H133.559V53.1953C133.559 52.7266 133.473 52.3086 133.301 51.9414C133.137 51.5664 132.887 51.2695 132.551 51.0508C132.215 50.832 131.785 50.7227 131.262 50.7227C130.816 50.7227 130.434 50.8203 130.113 51.0156C129.793 51.2109 129.531 51.4844 129.328 51.8359C129.133 52.1875 128.984 52.6016 128.883 53.0781C128.789 53.5469 128.742 54.0625 128.742 54.625V55.0938C128.742 55.6016 128.812 56.0703 128.953 56.5C129.102 56.9297 129.309 57.3008 129.574 57.6133C129.848 57.9258 130.176 58.168 130.559 58.3398C130.949 58.5117 131.391 58.5977 131.883 58.5977C132.492 58.5977 133.059 58.4805 133.582 58.2461C134.113 58.0039 134.57 57.6406 134.953 57.1562L136.594 58.9375C136.328 59.3203 135.965 59.6875 135.504 60.0391C135.051 60.3906 134.504 60.6797 133.863 60.9062C133.223 61.125 132.492 61.2344 131.672 61.2344ZM144.035 58.5977C144.449 58.5977 144.816 58.5195 145.137 58.3633C145.457 58.1992 145.707 57.9727 145.887 57.6836C146.074 57.3867 146.172 57.0391 146.18 56.6406H149.355C149.348 57.5312 149.109 58.3242 148.641 59.0195C148.172 59.707 147.543 60.25 146.754 60.6484C145.965 61.0391 145.082 61.2344 144.105 61.2344C143.121 61.2344 142.262 61.0703 141.527 60.7422C140.801 60.4141 140.195 59.9609 139.711 59.3828C139.227 58.7969 138.863 58.1172 138.621 57.3438C138.379 56.5625 138.258 55.7266 138.258 54.8359V54.4961C138.258 53.5977 138.379 52.7617 138.621 51.9883C138.863 51.207 139.227 50.5273 139.711 49.9492C140.195 49.3633 140.801 48.9062 141.527 48.5781C142.254 48.25 143.105 48.0859 144.082 48.0859C145.121 48.0859 146.031 48.2852 146.812 48.6836C147.602 49.082 148.219 49.6523 148.664 50.3945C149.117 51.1289 149.348 52 149.355 53.0078H146.18C146.172 52.5859 146.082 52.2031 145.91 51.8594C145.746 51.5156 145.504 51.2422 145.184 51.0391C144.871 50.8281 144.484 50.7227 144.023 50.7227C143.531 50.7227 143.129 50.8281 142.816 51.0391C142.504 51.2422 142.262 51.5234 142.09 51.8828C141.918 52.2344 141.797 52.6367 141.727 53.0898C141.664 53.5352 141.633 54.0039 141.633 54.4961V54.8359C141.633 55.3281 141.664 55.8008 141.727 56.2539C141.789 56.707 141.906 57.1094 142.078 57.4609C142.258 57.8125 142.504 58.0898 142.816 58.293C143.129 58.4961 143.535 58.5977 144.035 58.5977ZM154.605 43V61H151.23V43H154.605ZM154.125 54.2148H153.199C153.207 53.332 153.324 52.5195 153.551 51.7773C153.777 51.0273 154.102 50.3789 154.523 49.832C154.945 49.2773 155.449 48.8477 156.035 48.543C156.629 48.2383 157.285 48.0859 158.004 48.0859C158.629 48.0859 159.195 48.1758 159.703 48.3555C160.219 48.5273 160.66 48.8086 161.027 49.1992C161.402 49.582 161.691 50.0859 161.895 50.7109C162.098 51.3359 162.199 52.0938 162.199 52.9844V61H158.801V52.9609C158.801 52.3984 158.719 51.957 158.555 51.6367C158.398 51.3086 158.168 51.0781 157.863 50.9453C157.566 50.8047 157.199 50.7344 156.762 50.7344C156.277 50.7344 155.863 50.8242 155.52 51.0039C155.184 51.1836 154.914 51.4336 154.711 51.7539C154.508 52.0664 154.359 52.4336 154.266 52.8555C154.172 53.2773 154.125 53.7305 154.125 54.2148ZM177.598 54.918H173.25V52.1758H177.598C178.27 52.1758 178.816 52.0664 179.238 51.8477C179.66 51.6211 179.969 51.3086 180.164 50.9102C180.359 50.5117 180.457 50.0625 180.457 49.5625C180.457 49.0547 180.359 48.582 180.164 48.1445C179.969 47.707 179.66 47.3555 179.238 47.0898C178.816 46.8242 178.27 46.6914 177.598 46.6914H174.469V61H170.953V43.9375H177.598C178.934 43.9375 180.078 44.1797 181.031 44.6641C181.992 45.1406 182.727 45.8008 183.234 46.6445C183.742 47.4883 183.996 48.4531 183.996 49.5391C183.996 50.6406 183.742 51.5938 183.234 52.3984C182.727 53.2031 181.992 53.8242 181.031 54.2617C180.078 54.6992 178.934 54.918 177.598 54.918ZM189.586 51.0859V61H186.211V48.3203H189.387L189.586 51.0859ZM193.406 48.2383L193.348 51.3672C193.184 51.3438 192.984 51.3242 192.75 51.3086C192.523 51.2852 192.316 51.2734 192.129 51.2734C191.652 51.2734 191.238 51.3359 190.887 51.4609C190.543 51.5781 190.254 51.7539 190.02 51.9883C189.793 52.2227 189.621 52.5078 189.504 52.8438C189.395 53.1797 189.332 53.5625 189.316 53.9922L188.637 53.7812C188.637 52.9609 188.719 52.207 188.883 51.5195C189.047 50.8242 189.285 50.2188 189.598 49.7031C189.918 49.1875 190.309 48.7891 190.77 48.5078C191.23 48.2266 191.758 48.0859 192.352 48.0859C192.539 48.0859 192.73 48.1016 192.926 48.1328C193.121 48.1562 193.281 48.1914 193.406 48.2383ZM194.109 54.7891V54.543C194.109 53.6133 194.242 52.7578 194.508 51.9766C194.773 51.1875 195.16 50.5039 195.668 49.9258C196.176 49.3477 196.801 48.8984 197.543 48.5781C198.285 48.25 199.137 48.0859 200.098 48.0859C201.059 48.0859 201.914 48.25 202.664 48.5781C203.414 48.8984 204.043 49.3477 204.551 49.9258C205.066 50.5039 205.457 51.1875 205.723 51.9766C205.988 52.7578 206.121 53.6133 206.121 54.543V54.7891C206.121 55.7109 205.988 56.5664 205.723 57.3555C205.457 58.1367 205.066 58.8203 204.551 59.4062C204.043 59.9844 203.418 60.4336 202.676 60.7539C201.934 61.0742 201.082 61.2344 200.121 61.2344C199.16 61.2344 198.305 61.0742 197.555 60.7539C196.812 60.4336 196.184 59.9844 195.668 59.4062C195.16 58.8203 194.773 58.1367 194.508 57.3555C194.242 56.5664 194.109 55.7109 194.109 54.7891ZM197.484 54.543V54.7891C197.484 55.3203 197.531 55.8164 197.625 56.2773C197.719 56.7383 197.867 57.1445 198.07 57.4961C198.281 57.8398 198.555 58.1094 198.891 58.3047C199.227 58.5 199.637 58.5977 200.121 58.5977C200.59 58.5977 200.992 58.5 201.328 58.3047C201.664 58.1094 201.934 57.8398 202.137 57.4961C202.34 57.1445 202.488 56.7383 202.582 56.2773C202.684 55.8164 202.734 55.3203 202.734 54.7891V54.543C202.734 54.0273 202.684 53.543 202.582 53.0898C202.488 52.6289 202.336 52.2227 202.125 51.8711C201.922 51.5117 201.652 51.2305 201.316 51.0273C200.98 50.8242 200.574 50.7227 200.098 50.7227C199.621 50.7227 199.215 50.8242 198.879 51.0273C198.551 51.2305 198.281 51.5117 198.07 51.8711C197.867 52.2227 197.719 52.6289 197.625 53.0898C197.531 53.543 197.484 54.0273 197.484 54.543ZM215.684 58.2344V43H219.082V61H216.023L215.684 58.2344ZM207.668 54.8125V54.5664C207.668 53.5977 207.777 52.7188 207.996 51.9297C208.215 51.1328 208.535 50.4492 208.957 49.8789C209.379 49.3086 209.898 48.8672 210.516 48.5547C211.133 48.2422 211.836 48.0859 212.625 48.0859C213.367 48.0859 214.016 48.2422 214.57 48.5547C215.133 48.8672 215.609 49.3125 216 49.8906C216.398 50.4609 216.719 51.1367 216.961 51.918C217.203 52.6914 217.379 53.5391 217.488 54.4609V55C217.379 55.8828 217.203 56.7031 216.961 57.4609C216.719 58.2188 216.398 58.8828 216 59.4531C215.609 60.0156 215.133 60.4531 214.57 60.7656C214.008 61.0781 213.352 61.2344 212.602 61.2344C211.812 61.2344 211.109 61.0742 210.492 60.7539C209.883 60.4336 209.367 59.9844 208.945 59.4062C208.531 58.8281 208.215 58.1484 207.996 57.3672C207.777 56.5859 207.668 55.7344 207.668 54.8125ZM211.043 54.5664V54.8125C211.043 55.3359 211.082 55.8242 211.16 56.2773C211.246 56.7305 211.383 57.1328 211.57 57.4844C211.766 57.8281 212.016 58.0977 212.32 58.293C212.633 58.4805 213.012 58.5742 213.457 58.5742C214.035 58.5742 214.512 58.4453 214.887 58.1875C215.262 57.9219 215.547 57.5586 215.742 57.0977C215.945 56.6367 216.062 56.1055 216.094 55.5039V53.9688C216.07 53.4766 216 53.0352 215.883 52.6445C215.773 52.2461 215.609 51.9062 215.391 51.625C215.18 51.3438 214.914 51.125 214.594 50.9688C214.281 50.8125 213.91 50.7344 213.48 50.7344C213.043 50.7344 212.668 50.8359 212.355 51.0391C212.043 51.2344 211.789 51.5039 211.594 51.8477C211.406 52.1914 211.266 52.5977 211.172 53.0664C211.086 53.5273 211.043 54.0273 211.043 54.5664ZM229.219 57.9648V48.3203H232.594V61H229.418L229.219 57.9648ZM229.594 55.3633L230.59 55.3398C230.59 56.1836 230.492 56.9688 230.297 57.6953C230.102 58.4141 229.809 59.0391 229.418 59.5703C229.027 60.0938 228.535 60.5039 227.941 60.8008C227.348 61.0898 226.648 61.2344 225.844 61.2344C225.227 61.2344 224.656 61.1484 224.133 60.9766C223.617 60.7969 223.172 60.5195 222.797 60.1445C222.43 59.7617 222.141 59.2734 221.93 58.6797C221.727 58.0781 221.625 57.3555 221.625 56.5117V48.3203H225V56.5352C225 56.9102 225.043 57.2266 225.129 57.4844C225.223 57.7422 225.352 57.9531 225.516 58.1172C225.68 58.2812 225.871 58.3984 226.09 58.4688C226.316 58.5391 226.566 58.5742 226.84 58.5742C227.535 58.5742 228.082 58.4336 228.48 58.1523C228.887 57.8711 229.172 57.4883 229.336 57.0039C229.508 56.5117 229.594 55.9648 229.594 55.3633ZM240.41 58.5977C240.824 58.5977 241.191 58.5195 241.512 58.3633C241.832 58.1992 242.082 57.9727 242.262 57.6836C242.449 57.3867 242.547 57.0391 242.555 56.6406H245.73C245.723 57.5312 245.484 58.3242 245.016 59.0195C244.547 59.707 243.918 60.25 243.129 60.6484C242.34 61.0391 241.457 61.2344 240.48 61.2344C239.496 61.2344 238.637 61.0703 237.902 60.7422C237.176 60.4141 236.57 59.9609 236.086 59.3828C235.602 58.7969 235.238 58.1172 234.996 57.3438C234.754 56.5625 234.633 55.7266 234.633 54.8359V54.4961C234.633 53.5977 234.754 52.7617 234.996 51.9883C235.238 51.207 235.602 50.5273 236.086 49.9492C236.57 49.3633 237.176 48.9062 237.902 48.5781C238.629 48.25 239.48 48.0859 240.457 48.0859C241.496 48.0859 242.406 48.2852 243.188 48.6836C243.977 49.082 244.594 49.6523 245.039 50.3945C245.492 51.1289 245.723 52 245.73 53.0078H242.555C242.547 52.5859 242.457 52.2031 242.285 51.8594C242.121 51.5156 241.879 51.2422 241.559 51.0391C241.246 50.8281 240.859 50.7227 240.398 50.7227C239.906 50.7227 239.504 50.8281 239.191 51.0391C238.879 51.2422 238.637 51.5234 238.465 51.8828C238.293 52.2344 238.172 52.6367 238.102 53.0898C238.039 53.5352 238.008 54.0039 238.008 54.4961V54.8359C238.008 55.3281 238.039 55.8008 238.102 56.2539C238.164 56.707 238.281 57.1094 238.453 57.4609C238.633 57.8125 238.879 58.0898 239.191 58.293C239.504 58.4961 239.91 58.5977 240.41 58.5977ZM253.898 48.3203V50.7109H246.516V48.3203H253.898ZM248.344 45.1914H251.719V57.1797C251.719 57.5469 251.766 57.8281 251.859 58.0234C251.961 58.2188 252.109 58.3555 252.305 58.4336C252.5 58.5039 252.746 58.5391 253.043 58.5391C253.254 58.5391 253.441 58.5312 253.605 58.5156C253.777 58.4922 253.922 58.4688 254.039 58.4453L254.051 60.9297C253.762 61.0234 253.449 61.0977 253.113 61.1523C252.777 61.207 252.406 61.2344 252 61.2344C251.258 61.2344 250.609 61.1133 250.055 60.8711C249.508 60.6211 249.086 60.2227 248.789 59.6758C248.492 59.1289 248.344 58.4102 248.344 57.5195V45.1914ZM268.945 46.8555L264.305 61H260.566L266.906 43.9375H269.285L268.945 46.8555ZM272.801 61L268.148 46.8555L267.773 43.9375H270.176L276.551 61H272.801ZM272.59 54.6484V57.4023H263.578V54.6484H272.59ZM280.852 51.0273V61H277.477V48.3203H280.641L280.852 51.0273ZM280.359 54.2148H279.445C279.445 53.2773 279.566 52.4336 279.809 51.6836C280.051 50.9258 280.391 50.2812 280.828 49.75C281.266 49.2109 281.785 48.8008 282.387 48.5195C282.996 48.2305 283.676 48.0859 284.426 48.0859C285.02 48.0859 285.562 48.1719 286.055 48.3438C286.547 48.5156 286.969 48.7891 287.32 49.1641C287.68 49.5391 287.953 50.0352 288.141 50.6523C288.336 51.2695 288.434 52.0234 288.434 52.9141V61H285.035V52.9023C285.035 52.3398 284.957 51.9023 284.801 51.5898C284.645 51.2773 284.414 51.0586 284.109 50.9336C283.812 50.8008 283.445 50.7344 283.008 50.7344C282.555 50.7344 282.16 50.8242 281.824 51.0039C281.496 51.1836 281.223 51.4336 281.004 51.7539C280.793 52.0664 280.633 52.4336 280.523 52.8555C280.414 53.2773 280.359 53.7305 280.359 54.2148ZM297.844 58.1406V52.4922C297.844 52.0859 297.777 51.7383 297.645 51.4492C297.512 51.1523 297.305 50.9219 297.023 50.7578C296.75 50.5938 296.395 50.5117 295.957 50.5117C295.582 50.5117 295.258 50.5781 294.984 50.7109C294.711 50.8359 294.5 51.0195 294.352 51.2617C294.203 51.4961 294.129 51.7734 294.129 52.0938H290.754C290.754 51.5547 290.879 51.043 291.129 50.5586C291.379 50.0742 291.742 49.6484 292.219 49.2812C292.695 48.9062 293.262 48.6133 293.918 48.4023C294.582 48.1914 295.324 48.0859 296.145 48.0859C297.129 48.0859 298.004 48.25 298.77 48.5781C299.535 48.9062 300.137 49.3984 300.574 50.0547C301.02 50.7109 301.242 51.5312 301.242 52.5156V57.9414C301.242 58.6367 301.285 59.207 301.371 59.6523C301.457 60.0898 301.582 60.4727 301.746 60.8008V61H298.336C298.172 60.6562 298.047 60.2266 297.961 59.7109C297.883 59.1875 297.844 58.6641 297.844 58.1406ZM298.289 53.2773L298.312 55.1875H296.426C295.98 55.1875 295.594 55.2383 295.266 55.3398C294.938 55.4414 294.668 55.5859 294.457 55.7734C294.246 55.9531 294.09 56.1641 293.988 56.4062C293.895 56.6484 293.848 56.9141 293.848 57.2031C293.848 57.4922 293.914 57.7539 294.047 57.9883C294.18 58.2148 294.371 58.3945 294.621 58.5273C294.871 58.6523 295.164 58.7148 295.5 58.7148C296.008 58.7148 296.449 58.6133 296.824 58.4102C297.199 58.207 297.488 57.957 297.691 57.6602C297.902 57.3633 298.012 57.082 298.02 56.8164L298.91 58.2461C298.785 58.5664 298.613 58.8984 298.395 59.2422C298.184 59.5859 297.914 59.9102 297.586 60.2148C297.258 60.5117 296.863 60.7578 296.402 60.9531C295.941 61.1406 295.395 61.2344 294.762 61.2344C293.957 61.2344 293.227 61.0742 292.57 60.7539C291.922 60.4258 291.406 59.9766 291.023 59.4062C290.648 58.8281 290.461 58.1719 290.461 57.4375C290.461 56.7734 290.586 56.1836 290.836 55.668C291.086 55.1523 291.453 54.7188 291.938 54.3672C292.43 54.0078 293.043 53.7383 293.777 53.5586C294.512 53.3711 295.363 53.2773 296.332 53.2773H298.289ZM307.406 43V61H304.02V43H307.406ZM313.957 59.5703L317.32 48.3203H320.941L315.844 62.9102C315.734 63.2305 315.586 63.5742 315.398 63.9414C315.219 64.3086 314.973 64.6562 314.66 64.9844C314.355 65.3203 313.969 65.5938 313.5 65.8047C313.039 66.0156 312.473 66.1211 311.801 66.1211C311.48 66.1211 311.219 66.1016 311.016 66.0625C310.812 66.0234 310.57 65.9688 310.289 65.8984V63.4258C310.375 63.4258 310.465 63.4258 310.559 63.4258C310.652 63.4336 310.742 63.4375 310.828 63.4375C311.273 63.4375 311.637 63.3867 311.918 63.2852C312.199 63.1836 312.426 63.0273 312.598 62.8164C312.77 62.6133 312.906 62.3477 313.008 62.0195L313.957 59.5703ZM312.551 48.3203L315.305 57.5078L315.785 61.082L313.488 61.3281L308.93 48.3203H312.551ZM332.379 58.3633V61H322.746V58.3633H332.379ZM332.191 50.2656L324.105 61H321.844V58.9961L329.895 48.3203H332.191V50.2656ZM330.996 48.3203V50.9688H322.031V48.3203H330.996ZM340.148 61.2344C339.164 61.2344 338.281 61.0781 337.5 60.7656C336.719 60.4453 336.055 60.0039 335.508 59.4414C334.969 58.8789 334.555 58.2266 334.266 57.4844C333.977 56.7344 333.832 55.9375 333.832 55.0938V54.625C333.832 53.6641 333.969 52.7852 334.242 51.9883C334.516 51.1914 334.906 50.5 335.414 49.9141C335.93 49.3281 336.555 48.8789 337.289 48.5664C338.023 48.2461 338.852 48.0859 339.773 48.0859C340.672 48.0859 341.469 48.2344 342.164 48.5312C342.859 48.8281 343.441 49.25 343.91 49.7969C344.387 50.3438 344.746 51 344.988 51.7656C345.23 52.5234 345.352 53.3672 345.352 54.2969V55.7031H335.273V53.4531H342.035V53.1953C342.035 52.7266 341.949 52.3086 341.777 51.9414C341.613 51.5664 341.363 51.2695 341.027 51.0508C340.691 50.832 340.262 50.7227 339.738 50.7227C339.293 50.7227 338.91 50.8203 338.59 51.0156C338.27 51.2109 338.008 51.4844 337.805 51.8359C337.609 52.1875 337.461 52.6016 337.359 53.0781C337.266 53.5469 337.219 54.0625 337.219 54.625V55.0938C337.219 55.6016 337.289 56.0703 337.43 56.5C337.578 56.9297 337.785 57.3008 338.051 57.6133C338.324 57.9258 338.652 58.168 339.035 58.3398C339.426 58.5117 339.867 58.5977 340.359 58.5977C340.969 58.5977 341.535 58.4805 342.059 58.2461C342.59 58.0039 343.047 57.6406 343.43 57.1562L345.07 58.9375C344.805 59.3203 344.441 59.6875 343.98 60.0391C343.527 60.3906 342.98 60.6797 342.34 60.9062C341.699 61.125 340.969 61.2344 340.148 61.2344ZM350.648 51.0859V61H347.273V48.3203H350.449L350.648 51.0859ZM354.469 48.2383L354.41 51.3672C354.246 51.3438 354.047 51.3242 353.812 51.3086C353.586 51.2852 353.379 51.2734 353.191 51.2734C352.715 51.2734 352.301 51.3359 351.949 51.4609C351.605 51.5781 351.316 51.7539 351.082 51.9883C350.855 52.2227 350.684 52.5078 350.566 52.8438C350.457 53.1797 350.395 53.5625 350.379 53.9922L349.699 53.7812C349.699 52.9609 349.781 52.207 349.945 51.5195C350.109 50.8242 350.348 50.2188 350.66 49.7031C350.98 49.1875 351.371 48.7891 351.832 48.5078C352.293 48.2266 352.82 48.0859 353.414 48.0859C353.602 48.0859 353.793 48.1016 353.988 48.1328C354.184 48.1562 354.344 48.1914 354.469 48.2383Z" fill="#888888"/>
<path d="M104.344 84.875V119H96.1406V84.875H104.344ZM117.727 99.0078V119H109.828V93.6406H117.234L117.727 99.0078ZM116.766 105.453L114.961 105.5C114.961 103.719 115.172 102.078 115.594 100.578C116.016 99.0781 116.641 97.7734 117.469 96.6641C118.297 95.5547 119.312 94.6953 120.516 94.0859C121.734 93.4766 123.141 93.1719 124.734 93.1719C125.844 93.1719 126.852 93.3438 127.758 93.6875C128.664 94.0156 129.445 94.5391 130.102 95.2578C130.758 95.9609 131.258 96.8828 131.602 98.0234C131.961 99.1484 132.141 100.5 132.141 102.078V119H124.242V103.086C124.242 102.008 124.117 101.195 123.867 100.648C123.633 100.102 123.289 99.7344 122.836 99.5469C122.383 99.3594 121.828 99.2656 121.172 99.2656C120.484 99.2656 119.867 99.4219 119.32 99.7344C118.773 100.047 118.305 100.484 117.914 101.047C117.539 101.594 117.25 102.242 117.047 102.992C116.859 103.742 116.766 104.562 116.766 105.453ZM131.25 105.453L129.047 105.5C129.047 103.719 129.242 102.078 129.633 100.578C130.039 99.0781 130.641 97.7734 131.438 96.6641C132.25 95.5547 133.258 94.6953 134.461 94.0859C135.664 93.4766 137.062 93.1719 138.656 93.1719C139.812 93.1719 140.875 93.3438 141.844 93.6875C142.812 94.0312 143.648 94.5859 144.352 95.3516C145.055 96.1172 145.602 97.1328 145.992 98.3984C146.383 99.6484 146.578 101.195 146.578 103.039V119H138.656V103.039C138.656 101.992 138.531 101.203 138.281 100.672C138.047 100.125 137.703 99.7578 137.25 99.5703C136.797 99.3672 136.258 99.2656 135.633 99.2656C134.883 99.2656 134.234 99.4219 133.688 99.7344C133.141 100.047 132.68 100.484 132.305 101.047C131.945 101.594 131.68 102.242 131.508 102.992C131.336 103.742 131.25 104.562 131.25 105.453ZM159.07 98.5156V128.75H151.172V93.6406H158.531L159.07 98.5156ZM174.633 106.016V106.508C174.633 108.352 174.422 110.062 174 111.641C173.578 113.219 172.953 114.594 172.125 115.766C171.297 116.938 170.266 117.852 169.031 118.508C167.812 119.148 166.398 119.469 164.789 119.469C163.273 119.469 161.969 119.133 160.875 118.461C159.781 117.789 158.867 116.859 158.133 115.672C157.398 114.484 156.805 113.125 156.352 111.594C155.898 110.062 155.539 108.445 155.273 106.742V106.109C155.539 104.281 155.898 102.586 156.352 101.023C156.805 99.4453 157.398 98.0703 158.133 96.8984C158.867 95.7266 159.773 94.8125 160.852 94.1562C161.945 93.5 163.25 93.1719 164.766 93.1719C166.375 93.1719 167.789 93.4766 169.008 94.0859C170.242 94.6953 171.273 95.5703 172.102 96.7109C172.945 97.8359 173.578 99.1875 174 100.766C174.422 102.344 174.633 104.094 174.633 106.016ZM166.734 106.508V106.016C166.734 105.031 166.664 104.133 166.523 103.32C166.383 102.492 166.156 101.773 165.844 101.164C165.547 100.555 165.148 100.086 164.648 99.7578C164.148 99.4297 163.531 99.2656 162.797 99.2656C161.953 99.2656 161.242 99.3984 160.664 99.6641C160.102 99.9141 159.648 100.305 159.305 100.836C158.977 101.352 158.742 102 158.602 102.781C158.477 103.547 158.422 104.445 158.438 105.477V107.398C158.406 108.586 158.523 109.633 158.789 110.539C159.055 111.43 159.516 112.125 160.172 112.625C160.828 113.125 161.719 113.375 162.844 113.375C163.594 113.375 164.219 113.203 164.719 112.859C165.219 112.5 165.617 112.008 165.914 111.383C166.211 110.742 166.422 110.008 166.547 109.18C166.672 108.352 166.734 107.461 166.734 106.508ZM186.492 83V119H178.57V83H186.492ZM203.648 119.469C201.586 119.469 199.742 119.148 198.117 118.508C196.492 117.852 195.117 116.953 193.992 115.812C192.883 114.672 192.031 113.359 191.438 111.875C190.859 110.391 190.57 108.82 190.57 107.164V106.273C190.57 104.414 190.828 102.695 191.344 101.117C191.859 99.5234 192.625 98.1328 193.641 96.9453C194.656 95.7578 195.93 94.8359 197.461 94.1797C198.992 93.5078 200.773 93.1719 202.805 93.1719C204.602 93.1719 206.211 93.4609 207.633 94.0391C209.055 94.6172 210.258 95.4453 211.242 96.5234C212.242 97.6016 213 98.9062 213.516 100.438C214.047 101.969 214.312 103.688 214.312 105.594V108.805H193.594V103.859H206.602V103.25C206.617 102.406 206.469 101.688 206.156 101.094C205.859 100.5 205.422 100.047 204.844 99.7344C204.266 99.4219 203.562 99.2656 202.734 99.2656C201.875 99.2656 201.164 99.4531 200.602 99.8281C200.055 100.203 199.625 100.719 199.312 101.375C199.016 102.016 198.805 102.758 198.68 103.602C198.555 104.445 198.492 105.336 198.492 106.273V107.164C198.492 108.102 198.617 108.953 198.867 109.719C199.133 110.484 199.508 111.141 199.992 111.688C200.492 112.219 201.086 112.633 201.773 112.93C202.477 113.227 203.273 113.375 204.164 113.375C205.242 113.375 206.305 113.172 207.352 112.766C208.398 112.359 209.297 111.688 210.047 110.75L213.633 115.016C213.117 115.75 212.383 116.461 211.43 117.148C210.492 117.836 209.367 118.398 208.055 118.836C206.742 119.258 205.273 119.469 203.648 119.469ZM225.492 99.0078V119H217.594V93.6406H225L225.492 99.0078ZM224.531 105.453L222.727 105.5C222.727 103.719 222.938 102.078 223.359 100.578C223.781 99.0781 224.406 97.7734 225.234 96.6641C226.062 95.5547 227.078 94.6953 228.281 94.0859C229.5 93.4766 230.906 93.1719 232.5 93.1719C233.609 93.1719 234.617 93.3438 235.523 93.6875C236.43 94.0156 237.211 94.5391 237.867 95.2578C238.523 95.9609 239.023 96.8828 239.367 98.0234C239.727 99.1484 239.906 100.5 239.906 102.078V119H232.008V103.086C232.008 102.008 231.883 101.195 231.633 100.648C231.398 100.102 231.055 99.7344 230.602 99.5469C230.148 99.3594 229.594 99.2656 228.938 99.2656C228.25 99.2656 227.633 99.4219 227.086 99.7344C226.539 100.047 226.07 100.484 225.68 101.047C225.305 101.594 225.016 102.242 224.812 102.992C224.625 103.742 224.531 104.562 224.531 105.453ZM239.016 105.453L236.812 105.5C236.812 103.719 237.008 102.078 237.398 100.578C237.805 99.0781 238.406 97.7734 239.203 96.6641C240.016 95.5547 241.023 94.6953 242.227 94.0859C243.43 93.4766 244.828 93.1719 246.422 93.1719C247.578 93.1719 248.641 93.3438 249.609 93.6875C250.578 94.0312 251.414 94.5859 252.117 95.3516C252.82 96.1172 253.367 97.1328 253.758 98.3984C254.148 99.6484 254.344 101.195 254.344 103.039V119H246.422V103.039C246.422 101.992 246.297 101.203 246.047 100.672C245.812 100.125 245.469 99.7578 245.016 99.5703C244.562 99.3672 244.023 99.2656 243.398 99.2656C242.648 99.2656 242 99.4219 241.453 99.7344C240.906 100.047 240.445 100.484 240.07 101.047C239.711 101.594 239.445 102.242 239.273 102.992C239.102 103.742 239.016 104.562 239.016 105.453ZM271.148 119.469C269.086 119.469 267.242 119.148 265.617 118.508C263.992 117.852 262.617 116.953 261.492 115.812C260.383 114.672 259.531 113.359 258.938 111.875C258.359 110.391 258.07 108.82 258.07 107.164V106.273C258.07 104.414 258.328 102.695 258.844 101.117C259.359 99.5234 260.125 98.1328 261.141 96.9453C262.156 95.7578 263.43 94.8359 264.961 94.1797C266.492 93.5078 268.273 93.1719 270.305 93.1719C272.102 93.1719 273.711 93.4609 275.133 94.0391C276.555 94.6172 277.758 95.4453 278.742 96.5234C279.742 97.6016 280.5 98.9062 281.016 100.438C281.547 101.969 281.812 103.688 281.812 105.594V108.805H261.094V103.859H274.102V103.25C274.117 102.406 273.969 101.688 273.656 101.094C273.359 100.5 272.922 100.047 272.344 99.7344C271.766 99.4219 271.062 99.2656 270.234 99.2656C269.375 99.2656 268.664 99.4531 268.102 99.8281C267.555 100.203 267.125 100.719 266.812 101.375C266.516 102.016 266.305 102.758 266.18 103.602C266.055 104.445 265.992 105.336 265.992 106.273V107.164C265.992 108.102 266.117 108.953 266.367 109.719C266.633 110.484 267.008 111.141 267.492 111.688C267.992 112.219 268.586 112.633 269.273 112.93C269.977 113.227 270.773 113.375 271.664 113.375C272.742 113.375 273.805 113.172 274.852 112.766C275.898 112.359 276.797 111.688 277.547 110.75L281.133 115.016C280.617 115.75 279.883 116.461 278.93 117.148C277.992 117.836 276.867 118.398 275.555 118.836C274.242 119.258 272.773 119.469 271.148 119.469ZM292.781 99.0547V119H284.883V93.6406H292.289L292.781 99.0547ZM291.844 105.453L289.992 105.5C289.992 103.562 290.227 101.836 290.695 100.32C291.164 98.7891 291.828 97.4922 292.688 96.4297C293.547 95.3672 294.57 94.5625 295.758 94.0156C296.961 93.4531 298.297 93.1719 299.766 93.1719C300.938 93.1719 302.008 93.3438 302.977 93.6875C303.961 94.0312 304.805 94.5859 305.508 95.3516C306.227 96.1172 306.773 97.1328 307.148 98.3984C307.539 99.6484 307.734 101.195 307.734 103.039V119H299.789V103.016C299.789 102 299.648 101.227 299.367 100.695C299.086 100.148 298.68 99.7734 298.148 99.5703C297.617 99.3672 296.969 99.2656 296.203 99.2656C295.391 99.2656 294.703 99.4219 294.141 99.7344C293.578 100.047 293.125 100.484 292.781 101.047C292.453 101.594 292.211 102.242 292.055 102.992C291.914 103.742 291.844 104.562 291.844 105.453ZM325.477 93.6406V99.125H310.195V93.6406H325.477ZM313.406 87.3359H321.305V110.727C321.305 111.398 321.383 111.922 321.539 112.297C321.695 112.656 321.961 112.914 322.336 113.07C322.727 113.211 323.242 113.281 323.883 113.281C324.336 113.281 324.711 113.273 325.008 113.258C325.305 113.227 325.586 113.188 325.852 113.141V118.789C325.18 119.008 324.477 119.172 323.742 119.281C323.008 119.406 322.227 119.469 321.398 119.469C319.711 119.469 318.266 119.203 317.062 118.672C315.875 118.141 314.969 117.305 314.344 116.164C313.719 115.023 313.406 113.539 313.406 111.711V87.3359ZM341.789 112.625V102.172C341.789 101.453 341.688 100.836 341.484 100.32C341.281 99.8047 340.961 99.4062 340.523 99.125C340.086 98.8281 339.5 98.6797 338.766 98.6797C338.172 98.6797 337.664 98.7812 337.242 98.9844C336.82 99.1875 336.5 99.4922 336.281 99.8984C336.062 100.305 335.953 100.82 335.953 101.445H328.055C328.055 100.273 328.312 99.1875 328.828 98.1875C329.359 97.1719 330.109 96.2891 331.078 95.5391C332.062 94.7891 333.234 94.2109 334.594 93.8047C335.969 93.3828 337.5 93.1719 339.188 93.1719C341.203 93.1719 343 93.5078 344.578 94.1797C346.172 94.8516 347.43 95.8594 348.352 97.2031C349.273 98.5312 349.734 100.203 349.734 102.219V112.602C349.734 114.258 349.828 115.516 350.016 116.375C350.203 117.219 350.469 117.961 350.812 118.602V119H342.891C342.516 118.219 342.234 117.266 342.047 116.141C341.875 115 341.789 113.828 341.789 112.625ZM342.75 103.508L342.797 107.727H339.305C338.57 107.727 337.945 107.828 337.43 108.031C336.93 108.234 336.523 108.516 336.211 108.875C335.914 109.219 335.695 109.609 335.555 110.047C335.43 110.484 335.367 110.945 335.367 111.43C335.367 111.898 335.477 112.32 335.695 112.695C335.93 113.055 336.242 113.336 336.633 113.539C337.023 113.742 337.461 113.844 337.945 113.844C338.82 113.844 339.562 113.68 340.172 113.352C340.797 113.008 341.273 112.594 341.602 112.109C341.93 111.625 342.094 111.172 342.094 110.75L343.828 113.984C343.516 114.609 343.156 115.242 342.75 115.883C342.359 116.523 341.867 117.117 341.273 117.664C340.695 118.195 339.984 118.633 339.141 118.977C338.297 119.305 337.273 119.469 336.07 119.469C334.508 119.469 333.07 119.148 331.758 118.508C330.461 117.867 329.422 116.977 328.641 115.836C327.859 114.68 327.469 113.352 327.469 111.852C327.469 110.539 327.703 109.367 328.172 108.336C328.656 107.305 329.383 106.43 330.352 105.711C331.32 104.992 332.555 104.445 334.055 104.07C335.555 103.695 337.32 103.508 339.352 103.508H342.75ZM367.477 93.6406V99.125H352.195V93.6406H367.477ZM355.406 87.3359H363.305V110.727C363.305 111.398 363.383 111.922 363.539 112.297C363.695 112.656 363.961 112.914 364.336 113.07C364.727 113.211 365.242 113.281 365.883 113.281C366.336 113.281 366.711 113.273 367.008 113.258C367.305 113.227 367.586 113.188 367.852 113.141V118.789C367.18 119.008 366.477 119.172 365.742 119.281C365.008 119.406 364.227 119.469 363.398 119.469C361.711 119.469 360.266 119.203 359.062 118.672C357.875 118.141 356.969 117.305 356.344 116.164C355.719 115.023 355.406 113.539 355.406 111.711V87.3359ZM378.961 93.6406V119H371.039V93.6406H378.961ZM370.57 87.1016C370.57 85.9766 370.977 85.0547 371.789 84.3359C372.602 83.6172 373.656 83.2578 374.953 83.2578C376.25 83.2578 377.305 83.6172 378.117 84.3359C378.93 85.0547 379.336 85.9766 379.336 87.1016C379.336 88.2266 378.93 89.1484 378.117 89.8672C377.305 90.5859 376.25 90.9453 374.953 90.9453C373.656 90.9453 372.602 90.5859 371.789 89.8672C370.977 89.1484 370.57 88.2266 370.57 87.1016ZM382.852 106.578V106.086C382.852 104.227 383.117 102.516 383.648 100.953C384.18 99.375 384.961 98.0078 385.992 96.8516C387.023 95.6953 388.297 94.7969 389.812 94.1562C391.328 93.5 393.078 93.1719 395.062 93.1719C397.062 93.1719 398.82 93.5 400.336 94.1562C401.867 94.7969 403.148 95.6953 404.18 96.8516C405.211 98.0078 405.992 99.375 406.523 100.953C407.055 102.516 407.32 104.227 407.32 106.086V106.578C407.32 108.422 407.055 110.133 406.523 111.711C405.992 113.273 405.211 114.641 404.18 115.812C403.148 116.969 401.875 117.867 400.359 118.508C398.844 119.148 397.094 119.469 395.109 119.469C393.125 119.469 391.367 119.148 389.836 118.508C388.305 117.867 387.023 116.969 385.992 115.812C384.961 114.641 384.18 113.273 383.648 111.711C383.117 110.133 382.852 108.422 382.852 106.578ZM390.75 106.086V106.578C390.75 107.531 390.82 108.422 390.961 109.25C391.102 110.078 391.336 110.805 391.664 111.43C391.992 112.039 392.438 112.516 393 112.859C393.562 113.203 394.266 113.375 395.109 113.375C395.938 113.375 396.625 113.203 397.172 112.859C397.734 112.516 398.18 112.039 398.508 111.43C398.836 110.805 399.07 110.078 399.211 109.25C399.352 108.422 399.422 107.531 399.422 106.578V106.086C399.422 105.164 399.352 104.297 399.211 103.484C399.07 102.656 398.836 101.93 398.508 101.305C398.18 100.664 397.734 100.164 397.172 99.8047C396.609 99.4453 395.906 99.2656 395.062 99.2656C394.234 99.2656 393.539 99.4453 392.977 99.8047C392.43 100.164 391.992 100.664 391.664 101.305C391.336 101.93 391.102 102.656 390.961 103.484C390.82 104.297 390.75 105.164 390.75 106.086ZM418.594 99.0547V119H410.695V93.6406H418.102L418.594 99.0547ZM417.656 105.453L415.805 105.5C415.805 103.562 416.039 101.836 416.508 100.32C416.977 98.7891 417.641 97.4922 418.5 96.4297C419.359 95.3672 420.383 94.5625 421.57 94.0156C422.773 93.4531 424.109 93.1719 425.578 93.1719C426.75 93.1719 427.82 93.3438 428.789 93.6875C429.773 94.0312 430.617 94.5859 431.32 95.3516C432.039 96.1172 432.586 97.1328 432.961 98.3984C433.352 99.6484 433.547 101.195 433.547 103.039V119H425.602V103.016C425.602 102 425.461 101.227 425.18 100.695C424.898 100.148 424.492 99.7734 423.961 99.5703C423.43 99.3672 422.781 99.2656 422.016 99.2656C421.203 99.2656 420.516 99.4219 419.953 99.7344C419.391 100.047 418.938 100.484 418.594 101.047C418.266 101.594 418.023 102.242 417.867 102.992C417.727 103.742 417.656 104.562 417.656 105.453Z" fill="black"/>
<path d="M1134 0H1348C1356.28 0 1363 6.71573 1363 15V148C1363 156.284 1356.28 163 1348 163H1134V0Z" fill="#004AAD"/>
<path d="M1281 46.5H1216L1213.5 49V114L1216 116.5H1281L1283.5 114V49L1281 46.5ZM1278.5 111.5H1233.5V101.5H1245C1246.5 104.5 1250 106.5 1253.5 106.5C1259 106.5 1263.5 102 1263.5 96.5C1263.5 91 1259 86.5 1253.5 86.5C1248 86.5 1243.5 91 1243.5 96.5H1228.5V111.5H1218.5V51.5H1228.5V63C1225.5 64.5 1223.5 68 1223.5 71.5C1223.5 77 1228 81.5 1233.5 81.5C1239 81.5 1243.5 77 1243.5 71.5H1253.5C1253.5 77 1258 81.5 1263.5 81.5C1269 81.5 1273.5 77 1273.5 71.5C1273.5 66 1269 61.5 1263.5 61.5C1260 61.5 1256.5 63.5 1255 66.5H1242C1240.5 63.5 1237 61.5 1233.5 61.5V51.5H1278.5V111.5ZM1248.5 96.5C1248.5 93.5 1250.5 91.5 1253.5 91.5C1256.5 91.5 1258.5 93.5 1258.5 96.5C1258.5 99.5 1256.5 101.5 1253.5 101.5C1250.5 101.5 1248.5 99.5 1248.5 96.5ZM1233.5 66.5C1236.5 66.5 1238.5 68.5 1238.5 71.5C1238.5 74.5 1236.5 76.5 1233.5 76.5C1230.5 76.5 1228.5 74.5 1228.5 71.5C1228.5 68.5 1230.5 66.5 1233.5 66.5ZM1263.5 66.5C1266.5 66.5 1268.5 68.5 1268.5 71.5C1268.5 74.5 1266.5 76.5 1263.5 76.5C1260.5 76.5 1258.5 74.5 1258.5 71.5C1258.5 68.5 1260.5 66.5 1263.5 66.5Z" fill="white"/>
</svg>
