<svg width="1363" height="163" viewBox="0 0 1363 163" fill="none" xmlns="http://www.w3.org/2000/svg">
<path d="M0 15C0 6.71573 6.71573 0 15 0H37V163H15C6.71573 163 0 156.284 0 148V15Z" fill="#424242"/>
<rect width="1097" height="163" transform="translate(37)" fill="#F0F0F0"/>
<path d="M101.906 53.9219L94.3945 51.2383V48.0859L104.602 52.375V54.6367L101.906 53.9219ZM94.3945 56.1719L101.918 53.4297L104.602 52.7852V55.0352L94.3945 59.3242V56.1719ZM119.895 43.9375V61H116.391V43.9375H119.895ZM125.145 43.9375V46.6914H111.223V43.9375H125.145ZM131.672 61.2344C130.688 61.2344 129.805 61.0781 129.023 60.7656C128.242 60.4453 127.578 60.0039 127.031 59.4414C126.492 58.8789 126.078 58.2266 125.789 57.4844C125.5 56.7344 125.355 55.9375 125.355 55.0938V54.625C125.355 53.6641 125.492 52.7852 125.766 51.9883C126.039 51.1914 126.43 50.5 126.938 49.9141C127.453 49.3281 128.078 48.8789 128.812 48.5664C129.547 48.2461 130.375 48.0859 131.297 48.0859C132.195 48.0859 132.992 48.2344 133.688 48.5312C134.383 48.8281 134.965 49.25 135.434 49.7969C135.91 50.3438 136.27 51 136.512 51.7656C136.754 52.5234 136.875 53.3672 136.875 54.2969V55.7031H126.797V53.4531H133.559V53.1953C133.559 52.7266 133.473 52.3086 133.301 51.9414C133.137 51.5664 132.887 51.2695 132.551 51.0508C132.215 50.832 131.785 50.7227 131.262 50.7227C130.816 50.7227 130.434 50.8203 130.113 51.0156C129.793 51.2109 129.531 51.4844 129.328 51.8359C129.133 52.1875 128.984 52.6016 128.883 53.0781C128.789 53.5469 128.742 54.0625 128.742 54.625V55.0938C128.742 55.6016 128.812 56.0703 128.953 56.5C129.102 56.9297 129.309 57.3008 129.574 57.6133C129.848 57.9258 130.176 58.168 130.559 58.3398C130.949 58.5117 131.391 58.5977 131.883 58.5977C132.492 58.5977 133.059 58.4805 133.582 58.2461C134.113 58.0039 134.57 57.6406 134.953 57.1562L136.594 58.9375C136.328 59.3203 135.965 59.6875 135.504 60.0391C135.051 60.3906 134.504 60.6797 133.863 60.9062C133.223 61.125 132.492 61.2344 131.672 61.2344ZM144.035 58.5977C144.449 58.5977 144.816 58.5195 145.137 58.3633C145.457 58.1992 145.707 57.9727 145.887 57.6836C146.074 57.3867 146.172 57.0391 146.18 56.6406H149.355C149.348 57.5312 149.109 58.3242 148.641 59.0195C148.172 59.707 147.543 60.25 146.754 60.6484C145.965 61.0391 145.082 61.2344 144.105 61.2344C143.121 61.2344 142.262 61.0703 141.527 60.7422C140.801 60.4141 140.195 59.9609 139.711 59.3828C139.227 58.7969 138.863 58.1172 138.621 57.3438C138.379 56.5625 138.258 55.7266 138.258 54.8359V54.4961C138.258 53.5977 138.379 52.7617 138.621 51.9883C138.863 51.207 139.227 50.5273 139.711 49.9492C140.195 49.3633 140.801 48.9062 141.527 48.5781C142.254 48.25 143.105 48.0859 144.082 48.0859C145.121 48.0859 146.031 48.2852 146.812 48.6836C147.602 49.082 148.219 49.6523 148.664 50.3945C149.117 51.1289 149.348 52 149.355 53.0078H146.18C146.172 52.5859 146.082 52.2031 145.91 51.8594C145.746 51.5156 145.504 51.2422 145.184 51.0391C144.871 50.8281 144.484 50.7227 144.023 50.7227C143.531 50.7227 143.129 50.8281 142.816 51.0391C142.504 51.2422 142.262 51.5234 142.09 51.8828C141.918 52.2344 141.797 52.6367 141.727 53.0898C141.664 53.5352 141.633 54.0039 141.633 54.4961V54.8359C141.633 55.3281 141.664 55.8008 141.727 56.2539C141.789 56.707 141.906 57.1094 142.078 57.4609C142.258 57.8125 142.504 58.0898 142.816 58.293C143.129 58.4961 143.535 58.5977 144.035 58.5977ZM154.605 43V61H151.23V43H154.605ZM154.125 54.2148H153.199C153.207 53.332 153.324 52.5195 153.551 51.7773C153.777 51.0273 154.102 50.3789 154.523 49.832C154.945 49.2773 155.449 48.8477 156.035 48.543C156.629 48.2383 157.285 48.0859 158.004 48.0859C158.629 48.0859 159.195 48.1758 159.703 48.3555C160.219 48.5273 160.66 48.8086 161.027 49.1992C161.402 49.582 161.691 50.0859 161.895 50.7109C162.098 51.3359 162.199 52.0938 162.199 52.9844V61H158.801V52.9609C158.801 52.3984 158.719 51.957 158.555 51.6367C158.398 51.3086 158.168 51.0781 157.863 50.9453C157.566 50.8047 157.199 50.7344 156.762 50.7344C156.277 50.7344 155.863 50.8242 155.52 51.0039C155.184 51.1836 154.914 51.4336 154.711 51.7539C154.508 52.0664 154.359 52.4336 154.266 52.8555C154.172 53.2773 154.125 53.7305 154.125 54.2148ZM177.598 54.918H173.25V52.1758H177.598C178.27 52.1758 178.816 52.0664 179.238 51.8477C179.66 51.6211 179.969 51.3086 180.164 50.9102C180.359 50.5117 180.457 50.0625 180.457 49.5625C180.457 49.0547 180.359 48.582 180.164 48.1445C179.969 47.707 179.66 47.3555 179.238 47.0898C178.816 46.8242 178.27 46.6914 177.598 46.6914H174.469V61H170.953V43.9375H177.598C178.934 43.9375 180.078 44.1797 181.031 44.6641C181.992 45.1406 182.727 45.8008 183.234 46.6445C183.742 47.4883 183.996 48.4531 183.996 49.5391C183.996 50.6406 183.742 51.5938 183.234 52.3984C182.727 53.2031 181.992 53.8242 181.031 54.2617C180.078 54.6992 178.934 54.918 177.598 54.918ZM189.586 51.0859V61H186.211V48.3203H189.387L189.586 51.0859ZM193.406 48.2383L193.348 51.3672C193.184 51.3438 192.984 51.3242 192.75 51.3086C192.523 51.2852 192.316 51.2734 192.129 51.2734C191.652 51.2734 191.238 51.3359 190.887 51.4609C190.543 51.5781 190.254 51.7539 190.02 51.9883C189.793 52.2227 189.621 52.5078 189.504 52.8438C189.395 53.1797 189.332 53.5625 189.316 53.9922L188.637 53.7812C188.637 52.9609 188.719 52.207 188.883 51.5195C189.047 50.8242 189.285 50.2188 189.598 49.7031C189.918 49.1875 190.309 48.7891 190.77 48.5078C191.23 48.2266 191.758 48.0859 192.352 48.0859C192.539 48.0859 192.73 48.1016 192.926 48.1328C193.121 48.1562 193.281 48.1914 193.406 48.2383ZM194.109 54.7891V54.543C194.109 53.6133 194.242 52.7578 194.508 51.9766C194.773 51.1875 195.16 50.5039 195.668 49.9258C196.176 49.3477 196.801 48.8984 197.543 48.5781C198.285 48.25 199.137 48.0859 200.098 48.0859C201.059 48.0859 201.914 48.25 202.664 48.5781C203.414 48.8984 204.043 49.3477 204.551 49.9258C205.066 50.5039 205.457 51.1875 205.723 51.9766C205.988 52.7578 206.121 53.6133 206.121 54.543V54.7891C206.121 55.7109 205.988 56.5664 205.723 57.3555C205.457 58.1367 205.066 58.8203 204.551 59.4062C204.043 59.9844 203.418 60.4336 202.676 60.7539C201.934 61.0742 201.082 61.2344 200.121 61.2344C199.16 61.2344 198.305 61.0742 197.555 60.7539C196.812 60.4336 196.184 59.9844 195.668 59.4062C195.16 58.8203 194.773 58.1367 194.508 57.3555C194.242 56.5664 194.109 55.7109 194.109 54.7891ZM197.484 54.543V54.7891C197.484 55.3203 197.531 55.8164 197.625 56.2773C197.719 56.7383 197.867 57.1445 198.07 57.4961C198.281 57.8398 198.555 58.1094 198.891 58.3047C199.227 58.5 199.637 58.5977 200.121 58.5977C200.59 58.5977 200.992 58.5 201.328 58.3047C201.664 58.1094 201.934 57.8398 202.137 57.4961C202.34 57.1445 202.488 56.7383 202.582 56.2773C202.684 55.8164 202.734 55.3203 202.734 54.7891V54.543C202.734 54.0273 202.684 53.543 202.582 53.0898C202.488 52.6289 202.336 52.2227 202.125 51.8711C201.922 51.5117 201.652 51.2305 201.316 51.0273C200.98 50.8242 200.574 50.7227 200.098 50.7227C199.621 50.7227 199.215 50.8242 198.879 51.0273C198.551 51.2305 198.281 51.5117 198.07 51.8711C197.867 52.2227 197.719 52.6289 197.625 53.0898C197.531 53.543 197.484 54.0273 197.484 54.543ZM215.684 58.2344V43H219.082V61H216.023L215.684 58.2344ZM207.668 54.8125V54.5664C207.668 53.5977 207.777 52.7188 207.996 51.9297C208.215 51.1328 208.535 50.4492 208.957 49.8789C209.379 49.3086 209.898 48.8672 210.516 48.5547C211.133 48.2422 211.836 48.0859 212.625 48.0859C213.367 48.0859 214.016 48.2422 214.57 48.5547C215.133 48.8672 215.609 49.3125 216 49.8906C216.398 50.4609 216.719 51.1367 216.961 51.918C217.203 52.6914 217.379 53.5391 217.488 54.4609V55C217.379 55.8828 217.203 56.7031 216.961 57.4609C216.719 58.2188 216.398 58.8828 216 59.4531C215.609 60.0156 215.133 60.4531 214.57 60.7656C214.008 61.0781 213.352 61.2344 212.602 61.2344C211.812 61.2344 211.109 61.0742 210.492 60.7539C209.883 60.4336 209.367 59.9844 208.945 59.4062C208.531 58.8281 208.215 58.1484 207.996 57.3672C207.777 56.5859 207.668 55.7344 207.668 54.8125ZM211.043 54.5664V54.8125C211.043 55.3359 211.082 55.8242 211.16 56.2773C211.246 56.7305 211.383 57.1328 211.57 57.4844C211.766 57.8281 212.016 58.0977 212.32 58.293C212.633 58.4805 213.012 58.5742 213.457 58.5742C214.035 58.5742 214.512 58.4453 214.887 58.1875C215.262 57.9219 215.547 57.5586 215.742 57.0977C215.945 56.6367 216.062 56.1055 216.094 55.5039V53.9688C216.07 53.4766 216 53.0352 215.883 52.6445C215.773 52.2461 215.609 51.9062 215.391 51.625C215.18 51.3438 214.914 51.125 214.594 50.9688C214.281 50.8125 213.91 50.7344 213.48 50.7344C213.043 50.7344 212.668 50.8359 212.355 51.0391C212.043 51.2344 211.789 51.5039 211.594 51.8477C211.406 52.1914 211.266 52.5977 211.172 53.0664C211.086 53.5273 211.043 54.0273 211.043 54.5664ZM229.219 57.9648V48.3203H232.594V61H229.418L229.219 57.9648ZM229.594 55.3633L230.59 55.3398C230.59 56.1836 230.492 56.9688 230.297 57.6953C230.102 58.4141 229.809 59.0391 229.418 59.5703C229.027 60.0938 228.535 60.5039 227.941 60.8008C227.348 61.0898 226.648 61.2344 225.844 61.2344C225.227 61.2344 224.656 61.1484 224.133 60.9766C223.617 60.7969 223.172 60.5195 222.797 60.1445C222.43 59.7617 222.141 59.2734 221.93 58.6797C221.727 58.0781 221.625 57.3555 221.625 56.5117V48.3203H225V56.5352C225 56.9102 225.043 57.2266 225.129 57.4844C225.223 57.7422 225.352 57.9531 225.516 58.1172C225.68 58.2812 225.871 58.3984 226.09 58.4688C226.316 58.5391 226.566 58.5742 226.84 58.5742C227.535 58.5742 228.082 58.4336 228.48 58.1523C228.887 57.8711 229.172 57.4883 229.336 57.0039C229.508 56.5117 229.594 55.9648 229.594 55.3633ZM240.41 58.5977C240.824 58.5977 241.191 58.5195 241.512 58.3633C241.832 58.1992 242.082 57.9727 242.262 57.6836C242.449 57.3867 242.547 57.0391 242.555 56.6406H245.73C245.723 57.5312 245.484 58.3242 245.016 59.0195C244.547 59.707 243.918 60.25 243.129 60.6484C242.34 61.0391 241.457 61.2344 240.48 61.2344C239.496 61.2344 238.637 61.0703 237.902 60.7422C237.176 60.4141 236.57 59.9609 236.086 59.3828C235.602 58.7969 235.238 58.1172 234.996 57.3438C234.754 56.5625 234.633 55.7266 234.633 54.8359V54.4961C234.633 53.5977 234.754 52.7617 234.996 51.9883C235.238 51.207 235.602 50.5273 236.086 49.9492C236.57 49.3633 237.176 48.9062 237.902 48.5781C238.629 48.25 239.48 48.0859 240.457 48.0859C241.496 48.0859 242.406 48.2852 243.188 48.6836C243.977 49.082 244.594 49.6523 245.039 50.3945C245.492 51.1289 245.723 52 245.73 53.0078H242.555C242.547 52.5859 242.457 52.2031 242.285 51.8594C242.121 51.5156 241.879 51.2422 241.559 51.0391C241.246 50.8281 240.859 50.7227 240.398 50.7227C239.906 50.7227 239.504 50.8281 239.191 51.0391C238.879 51.2422 238.637 51.5234 238.465 51.8828C238.293 52.2344 238.172 52.6367 238.102 53.0898C238.039 53.5352 238.008 54.0039 238.008 54.4961V54.8359C238.008 55.3281 238.039 55.8008 238.102 56.2539C238.164 56.707 238.281 57.1094 238.453 57.4609C238.633 57.8125 238.879 58.0898 239.191 58.293C239.504 58.4961 239.91 58.5977 240.41 58.5977ZM253.898 48.3203V50.7109H246.516V48.3203H253.898ZM248.344 45.1914H251.719V57.1797C251.719 57.5469 251.766 57.8281 251.859 58.0234C251.961 58.2188 252.109 58.3555 252.305 58.4336C252.5 58.5039 252.746 58.5391 253.043 58.5391C253.254 58.5391 253.441 58.5312 253.605 58.5156C253.777 58.4922 253.922 58.4688 254.039 58.4453L254.051 60.9297C253.762 61.0234 253.449 61.0977 253.113 61.1523C252.777 61.207 252.406 61.2344 252 61.2344C251.258 61.2344 250.609 61.1133 250.055 60.8711C249.508 60.6211 249.086 60.2227 248.789 59.6758C248.492 59.1289 248.344 58.4102 248.344 57.5195V45.1914ZM268.945 46.8555L264.305 61H260.566L266.906 43.9375H269.285L268.945 46.8555ZM272.801 61L268.148 46.8555L267.773 43.9375H270.176L276.551 61H272.801ZM272.59 54.6484V57.4023H263.578V54.6484H272.59ZM280.852 51.0273V61H277.477V48.3203H280.641L280.852 51.0273ZM280.359 54.2148H279.445C279.445 53.2773 279.566 52.4336 279.809 51.6836C280.051 50.9258 280.391 50.2812 280.828 49.75C281.266 49.2109 281.785 48.8008 282.387 48.5195C282.996 48.2305 283.676 48.0859 284.426 48.0859C285.02 48.0859 285.562 48.1719 286.055 48.3438C286.547 48.5156 286.969 48.7891 287.32 49.1641C287.68 49.5391 287.953 50.0352 288.141 50.6523C288.336 51.2695 288.434 52.0234 288.434 52.9141V61H285.035V52.9023C285.035 52.3398 284.957 51.9023 284.801 51.5898C284.645 51.2773 284.414 51.0586 284.109 50.9336C283.812 50.8008 283.445 50.7344 283.008 50.7344C282.555 50.7344 282.16 50.8242 281.824 51.0039C281.496 51.1836 281.223 51.4336 281.004 51.7539C280.793 52.0664 280.633 52.4336 280.523 52.8555C280.414 53.2773 280.359 53.7305 280.359 54.2148ZM297.844 58.1406V52.4922C297.844 52.0859 297.777 51.7383 297.645 51.4492C297.512 51.1523 297.305 50.9219 297.023 50.7578C296.75 50.5938 296.395 50.5117 295.957 50.5117C295.582 50.5117 295.258 50.5781 294.984 50.7109C294.711 50.8359 294.5 51.0195 294.352 51.2617C294.203 51.4961 294.129 51.7734 294.129 52.0938H290.754C290.754 51.5547 290.879 51.043 291.129 50.5586C291.379 50.0742 291.742 49.6484 292.219 49.2812C292.695 48.9062 293.262 48.6133 293.918 48.4023C294.582 48.1914 295.324 48.0859 296.145 48.0859C297.129 48.0859 298.004 48.25 298.77 48.5781C299.535 48.9062 300.137 49.3984 300.574 50.0547C301.02 50.7109 301.242 51.5312 301.242 52.5156V57.9414C301.242 58.6367 301.285 59.207 301.371 59.6523C301.457 60.0898 301.582 60.4727 301.746 60.8008V61H298.336C298.172 60.6562 298.047 60.2266 297.961 59.7109C297.883 59.1875 297.844 58.6641 297.844 58.1406ZM298.289 53.2773L298.312 55.1875H296.426C295.98 55.1875 295.594 55.2383 295.266 55.3398C294.938 55.4414 294.668 55.5859 294.457 55.7734C294.246 55.9531 294.09 56.1641 293.988 56.4062C293.895 56.6484 293.848 56.9141 293.848 57.2031C293.848 57.4922 293.914 57.7539 294.047 57.9883C294.18 58.2148 294.371 58.3945 294.621 58.5273C294.871 58.6523 295.164 58.7148 295.5 58.7148C296.008 58.7148 296.449 58.6133 296.824 58.4102C297.199 58.207 297.488 57.957 297.691 57.6602C297.902 57.3633 298.012 57.082 298.02 56.8164L298.91 58.2461C298.785 58.5664 298.613 58.8984 298.395 59.2422C298.184 59.5859 297.914 59.9102 297.586 60.2148C297.258 60.5117 296.863 60.7578 296.402 60.9531C295.941 61.1406 295.395 61.2344 294.762 61.2344C293.957 61.2344 293.227 61.0742 292.57 60.7539C291.922 60.4258 291.406 59.9766 291.023 59.4062C290.648 58.8281 290.461 58.1719 290.461 57.4375C290.461 56.7734 290.586 56.1836 290.836 55.668C291.086 55.1523 291.453 54.7188 291.938 54.3672C292.43 54.0078 293.043 53.7383 293.777 53.5586C294.512 53.3711 295.363 53.2773 296.332 53.2773H298.289ZM307.406 43V61H304.02V43H307.406ZM313.957 59.5703L317.32 48.3203H320.941L315.844 62.9102C315.734 63.2305 315.586 63.5742 315.398 63.9414C315.219 64.3086 314.973 64.6562 314.66 64.9844C314.355 65.3203 313.969 65.5938 313.5 65.8047C313.039 66.0156 312.473 66.1211 311.801 66.1211C311.48 66.1211 311.219 66.1016 311.016 66.0625C310.812 66.0234 310.57 65.9688 310.289 65.8984V63.4258C310.375 63.4258 310.465 63.4258 310.559 63.4258C310.652 63.4336 310.742 63.4375 310.828 63.4375C311.273 63.4375 311.637 63.3867 311.918 63.2852C312.199 63.1836 312.426 63.0273 312.598 62.8164C312.77 62.6133 312.906 62.3477 313.008 62.0195L313.957 59.5703ZM312.551 48.3203L315.305 57.5078L315.785 61.082L313.488 61.3281L308.93 48.3203H312.551ZM332.379 58.3633V61H322.746V58.3633H332.379ZM332.191 50.2656L324.105 61H321.844V58.9961L329.895 48.3203H332.191V50.2656ZM330.996 48.3203V50.9688H322.031V48.3203H330.996ZM340.148 61.2344C339.164 61.2344 338.281 61.0781 337.5 60.7656C336.719 60.4453 336.055 60.0039 335.508 59.4414C334.969 58.8789 334.555 58.2266 334.266 57.4844C333.977 56.7344 333.832 55.9375 333.832 55.0938V54.625C333.832 53.6641 333.969 52.7852 334.242 51.9883C334.516 51.1914 334.906 50.5 335.414 49.9141C335.93 49.3281 336.555 48.8789 337.289 48.5664C338.023 48.2461 338.852 48.0859 339.773 48.0859C340.672 48.0859 341.469 48.2344 342.164 48.5312C342.859 48.8281 343.441 49.25 343.91 49.7969C344.387 50.3438 344.746 51 344.988 51.7656C345.23 52.5234 345.352 53.3672 345.352 54.2969V55.7031H335.273V53.4531H342.035V53.1953C342.035 52.7266 341.949 52.3086 341.777 51.9414C341.613 51.5664 341.363 51.2695 341.027 51.0508C340.691 50.832 340.262 50.7227 339.738 50.7227C339.293 50.7227 338.91 50.8203 338.59 51.0156C338.27 51.2109 338.008 51.4844 337.805 51.8359C337.609 52.1875 337.461 52.6016 337.359 53.0781C337.266 53.5469 337.219 54.0625 337.219 54.625V55.0938C337.219 55.6016 337.289 56.0703 337.43 56.5C337.578 56.9297 337.785 57.3008 338.051 57.6133C338.324 57.9258 338.652 58.168 339.035 58.3398C339.426 58.5117 339.867 58.5977 340.359 58.5977C340.969 58.5977 341.535 58.4805 342.059 58.2461C342.59 58.0039 343.047 57.6406 343.43 57.1562L345.07 58.9375C344.805 59.3203 344.441 59.6875 343.98 60.0391C343.527 60.3906 342.98 60.6797 342.34 60.9062C341.699 61.125 340.969 61.2344 340.148 61.2344ZM350.648 51.0859V61H347.273V48.3203H350.449L350.648 51.0859ZM354.469 48.2383L354.41 51.3672C354.246 51.3438 354.047 51.3242 353.812 51.3086C353.586 51.2852 353.379 51.2734 353.191 51.2734C352.715 51.2734 352.301 51.3359 351.949 51.4609C351.605 51.5781 351.316 51.7539 351.082 51.9883C350.855 52.2227 350.684 52.5078 350.566 52.8438C350.457 53.1797 350.395 53.5625 350.379 53.9922L349.699 53.7812C349.699 52.9609 349.781 52.207 349.945 51.5195C350.109 50.8242 350.348 50.2188 350.66 49.7031C350.98 49.1875 351.371 48.7891 351.832 48.5078C352.293 48.2266 352.82 48.0859 353.414 48.0859C353.602 48.0859 353.793 48.1016 353.988 48.1328C354.184 48.1562 354.344 48.1914 354.469 48.2383Z" fill="#888888"/>
<path d="M112.125 84.875V119H103.898V84.875H112.125ZM122.391 84.875V91.2266H93.8672V84.875H122.391ZM135.68 119.469C133.617 119.469 131.773 119.148 130.148 118.508C128.523 117.852 127.148 116.953 126.023 115.812C124.914 114.672 124.062 113.359 123.469 111.875C122.891 110.391 122.602 108.82 122.602 107.164V106.273C122.602 104.414 122.859 102.695 123.375 101.117C123.891 99.5234 124.656 98.1328 125.672 96.9453C126.688 95.7578 127.961 94.8359 129.492 94.1797C131.023 93.5078 132.805 93.1719 134.836 93.1719C136.633 93.1719 138.242 93.4609 139.664 94.0391C141.086 94.6172 142.289 95.4453 143.273 96.5234C144.273 97.6016 145.031 98.9062 145.547 100.438C146.078 101.969 146.344 103.688 146.344 105.594V108.805H125.625V103.859H138.633V103.25C138.648 102.406 138.5 101.688 138.188 101.094C137.891 100.5 137.453 100.047 136.875 99.7344C136.297 99.4219 135.594 99.2656 134.766 99.2656C133.906 99.2656 133.195 99.4531 132.633 99.8281C132.086 100.203 131.656 100.719 131.344 101.375C131.047 102.016 130.836 102.758 130.711 103.602C130.586 104.445 130.523 105.336 130.523 106.273V107.164C130.523 108.102 130.648 108.953 130.898 109.719C131.164 110.484 131.539 111.141 132.023 111.688C132.523 112.219 133.117 112.633 133.805 112.93C134.508 113.227 135.305 113.375 136.195 113.375C137.273 113.375 138.336 113.172 139.383 112.766C140.43 112.359 141.328 111.688 142.078 110.75L145.664 115.016C145.148 115.75 144.414 116.461 143.461 117.148C142.523 117.836 141.398 118.398 140.086 118.836C138.773 119.258 137.305 119.469 135.68 119.469ZM160.266 113.375C161 113.375 161.625 113.242 162.141 112.977C162.672 112.695 163.07 112.305 163.336 111.805C163.617 111.289 163.75 110.672 163.734 109.953H171.164C171.18 111.859 170.711 113.531 169.758 114.969C168.82 116.391 167.539 117.5 165.914 118.297C164.305 119.078 162.484 119.469 160.453 119.469C158.469 119.469 156.734 119.148 155.25 118.508C153.766 117.852 152.523 116.945 151.523 115.789C150.539 114.617 149.797 113.25 149.297 111.688C148.812 110.125 148.57 108.43 148.57 106.602V106.062C148.57 104.234 148.812 102.539 149.297 100.977C149.797 99.3984 150.539 98.0312 151.523 96.875C152.523 95.7031 153.758 94.7969 155.227 94.1562C156.711 93.5 158.438 93.1719 160.406 93.1719C162.516 93.1719 164.375 93.5703 165.984 94.3672C167.609 95.1641 168.883 96.3203 169.805 97.8359C170.727 99.3516 171.18 101.188 171.164 103.344H163.734C163.75 102.578 163.633 101.891 163.383 101.281C163.133 100.672 162.742 100.188 162.211 99.8281C161.695 99.4531 161.031 99.2656 160.219 99.2656C159.406 99.2656 158.75 99.4453 158.25 99.8047C157.75 100.164 157.367 100.664 157.102 101.305C156.852 101.93 156.68 102.648 156.586 103.461C156.508 104.273 156.469 105.141 156.469 106.062V106.602C156.469 107.539 156.508 108.422 156.586 109.25C156.68 110.062 156.859 110.781 157.125 111.406C157.391 112.016 157.773 112.5 158.273 112.859C158.773 113.203 159.438 113.375 160.266 113.375ZM182.273 83V119H174.375V83H182.273ZM181.336 105.453L179.484 105.5C179.484 103.719 179.703 102.078 180.141 100.578C180.578 99.0781 181.203 97.7734 182.016 96.6641C182.828 95.5547 183.805 94.6953 184.945 94.0859C186.086 93.4766 187.352 93.1719 188.742 93.1719C189.992 93.1719 191.133 93.3516 192.164 93.7109C193.211 94.0703 194.109 94.6484 194.859 95.4453C195.625 96.2422 196.211 97.2812 196.617 98.5625C197.039 99.8438 197.25 101.406 197.25 103.25V119H189.305V103.203C189.305 102.172 189.156 101.375 188.859 100.812C188.578 100.234 188.172 99.8359 187.641 99.6172C187.109 99.3828 186.461 99.2656 185.695 99.2656C184.773 99.2656 184.023 99.4219 183.445 99.7344C182.867 100.047 182.422 100.484 182.109 101.047C181.812 101.594 181.609 102.242 181.5 102.992C181.391 103.742 181.336 104.562 181.336 105.453ZM231.539 109.93C231.539 109.398 231.461 108.922 231.305 108.5C231.148 108.062 230.859 107.656 230.438 107.281C230.016 106.906 229.406 106.531 228.609 106.156C227.828 105.766 226.797 105.359 225.516 104.938C224.016 104.438 222.57 103.875 221.18 103.25C219.789 102.609 218.547 101.867 217.453 101.023C216.359 100.164 215.492 99.1641 214.852 98.0234C214.211 96.8672 213.891 95.5234 213.891 93.9922C213.891 92.5234 214.219 91.2031 214.875 90.0312C215.531 88.8438 216.445 87.8359 217.617 87.0078C218.805 86.1641 220.195 85.5234 221.789 85.0859C223.383 84.6328 225.125 84.4062 227.016 84.4062C229.516 84.4062 231.719 84.8438 233.625 85.7188C235.547 86.5781 237.047 87.8047 238.125 89.3984C239.219 90.9766 239.766 92.8438 239.766 95H231.586C231.586 94.1406 231.406 93.3828 231.047 92.7266C230.703 92.0703 230.18 91.5547 229.477 91.1797C228.773 90.8047 227.891 90.6172 226.828 90.6172C225.797 90.6172 224.93 90.7734 224.227 91.0859C223.523 91.3984 222.992 91.8203 222.633 92.3516C222.273 92.8672 222.094 93.4375 222.094 94.0625C222.094 94.5781 222.234 95.0469 222.516 95.4688C222.812 95.875 223.227 96.2578 223.758 96.6172C224.305 96.9766 224.961 97.3203 225.727 97.6484C226.508 97.9766 227.383 98.2969 228.352 98.6094C230.164 99.1875 231.773 99.8359 233.18 100.555C234.602 101.258 235.797 102.062 236.766 102.969C237.75 103.859 238.492 104.875 238.992 106.016C239.508 107.156 239.766 108.445 239.766 109.883C239.766 111.414 239.469 112.773 238.875 113.961C238.281 115.148 237.43 116.156 236.32 116.984C235.211 117.797 233.883 118.414 232.336 118.836C230.789 119.258 229.062 119.469 227.156 119.469C225.406 119.469 223.68 119.25 221.977 118.812C220.289 118.359 218.758 117.672 217.383 116.75C216.008 115.812 214.906 114.617 214.078 113.164C213.266 111.695 212.859 109.953 212.859 107.938H221.109C221.109 108.938 221.242 109.781 221.508 110.469C221.773 111.156 222.164 111.711 222.68 112.133C223.195 112.539 223.828 112.836 224.578 113.023C225.328 113.195 226.188 113.281 227.156 113.281C228.203 113.281 229.047 113.133 229.688 112.836C230.328 112.523 230.797 112.117 231.094 111.617C231.391 111.102 231.539 110.539 231.539 109.93ZM256.992 93.6406V99.125H241.711V93.6406H256.992ZM244.922 87.3359H252.82V110.727C252.82 111.398 252.898 111.922 253.055 112.297C253.211 112.656 253.477 112.914 253.852 113.07C254.242 113.211 254.758 113.281 255.398 113.281C255.852 113.281 256.227 113.273 256.523 113.258C256.82 113.227 257.102 113.188 257.367 113.141V118.789C256.695 119.008 255.992 119.172 255.258 119.281C254.523 119.406 253.742 119.469 252.914 119.469C251.227 119.469 249.781 119.203 248.578 118.672C247.391 118.141 246.484 117.305 245.859 116.164C245.234 115.023 244.922 113.539 244.922 111.711V87.3359ZM273.305 112.625V102.172C273.305 101.453 273.203 100.836 273 100.32C272.797 99.8047 272.477 99.4062 272.039 99.125C271.602 98.8281 271.016 98.6797 270.281 98.6797C269.688 98.6797 269.18 98.7812 268.758 98.9844C268.336 99.1875 268.016 99.4922 267.797 99.8984C267.578 100.305 267.469 100.82 267.469 101.445H259.57C259.57 100.273 259.828 99.1875 260.344 98.1875C260.875 97.1719 261.625 96.2891 262.594 95.5391C263.578 94.7891 264.75 94.2109 266.109 93.8047C267.484 93.3828 269.016 93.1719 270.703 93.1719C272.719 93.1719 274.516 93.5078 276.094 94.1797C277.688 94.8516 278.945 95.8594 279.867 97.2031C280.789 98.5312 281.25 100.203 281.25 102.219V112.602C281.25 114.258 281.344 115.516 281.531 116.375C281.719 117.219 281.984 117.961 282.328 118.602V119H274.406C274.031 118.219 273.75 117.266 273.562 116.141C273.391 115 273.305 113.828 273.305 112.625ZM274.266 103.508L274.312 107.727H270.82C270.086 107.727 269.461 107.828 268.945 108.031C268.445 108.234 268.039 108.516 267.727 108.875C267.43 109.219 267.211 109.609 267.07 110.047C266.945 110.484 266.883 110.945 266.883 111.43C266.883 111.898 266.992 112.32 267.211 112.695C267.445 113.055 267.758 113.336 268.148 113.539C268.539 113.742 268.977 113.844 269.461 113.844C270.336 113.844 271.078 113.68 271.688 113.352C272.312 113.008 272.789 112.594 273.117 112.109C273.445 111.625 273.609 111.172 273.609 110.75L275.344 113.984C275.031 114.609 274.672 115.242 274.266 115.883C273.875 116.523 273.383 117.117 272.789 117.664C272.211 118.195 271.5 118.633 270.656 118.977C269.812 119.305 268.789 119.469 267.586 119.469C266.023 119.469 264.586 119.148 263.273 118.508C261.977 117.867 260.938 116.977 260.156 115.836C259.375 114.68 258.984 113.352 258.984 111.852C258.984 110.539 259.219 109.367 259.688 108.336C260.172 107.305 260.898 106.43 261.867 105.711C262.836 104.992 264.07 104.445 265.57 104.07C267.07 103.695 268.836 103.508 270.867 103.508H274.266ZM296.344 113.375C297.078 113.375 297.703 113.242 298.219 112.977C298.75 112.695 299.148 112.305 299.414 111.805C299.695 111.289 299.828 110.672 299.812 109.953H307.242C307.258 111.859 306.789 113.531 305.836 114.969C304.898 116.391 303.617 117.5 301.992 118.297C300.383 119.078 298.562 119.469 296.531 119.469C294.547 119.469 292.812 119.148 291.328 118.508C289.844 117.852 288.602 116.945 287.602 115.789C286.617 114.617 285.875 113.25 285.375 111.688C284.891 110.125 284.648 108.43 284.648 106.602V106.062C284.648 104.234 284.891 102.539 285.375 100.977C285.875 99.3984 286.617 98.0312 287.602 96.875C288.602 95.7031 289.836 94.7969 291.305 94.1562C292.789 93.5 294.516 93.1719 296.484 93.1719C298.594 93.1719 300.453 93.5703 302.062 94.3672C303.688 95.1641 304.961 96.3203 305.883 97.8359C306.805 99.3516 307.258 101.188 307.242 103.344H299.812C299.828 102.578 299.711 101.891 299.461 101.281C299.211 100.672 298.82 100.188 298.289 99.8281C297.773 99.4531 297.109 99.2656 296.297 99.2656C295.484 99.2656 294.828 99.4453 294.328 99.8047C293.828 100.164 293.445 100.664 293.18 101.305C292.93 101.93 292.758 102.648 292.664 103.461C292.586 104.273 292.547 105.141 292.547 106.062V106.602C292.547 107.539 292.586 108.422 292.664 109.25C292.758 110.062 292.938 110.781 293.203 111.406C293.469 112.016 293.852 112.5 294.352 112.859C294.852 113.203 295.516 113.375 296.344 113.375ZM318.586 82.9766V119H310.688V82.9766H318.586ZM334.805 93.6406L323.789 106.555L318.023 112.32L314.578 107.305L319.383 101.047L325.336 93.6406H334.805ZM326.344 119L319.57 107.445L325.406 103.297L335.391 119H326.344Z" fill="black"/>
<path d="M1134 0H1348C1356.28 0 1363 6.71573 1363 15V148C1363 156.284 1356.28 163 1348 163H1134V0Z" fill="#004AAD"/>
<path fill-rule="evenodd" clip-rule="evenodd" d="M1218.75 53C1218.62 53 1218.49 53.0527 1218.4 53.1464C1218.3 53.2402 1218.25 53.3674 1218.25 53.5V109.5C1218.25 109.633 1218.3 109.76 1218.4 109.854C1218.49 109.947 1218.62 110 1218.75 110H1278.25C1278.38 110 1278.51 109.947 1278.6 109.854C1278.7 109.76 1278.75 109.633 1278.75 109.5V64C1278.75 63.8674 1278.7 63.7402 1278.6 63.6464C1278.51 63.5527 1278.38 63.5 1278.25 63.5H1248.5C1247.61 63.5 1246.77 63.1045 1246.2 62.4206L1238.34 53H1218.75ZM1214.15 48.9038C1215.37 47.6848 1217.03 47 1218.75 47H1239.75C1240.64 47 1241.48 47.3955 1242.05 48.0794L1249.91 57.5H1278.25C1279.97 57.5 1281.63 58.1848 1282.85 59.4038C1284.07 60.6228 1284.75 62.2761 1284.75 64V109.5C1284.75 111.224 1284.07 112.877 1282.85 114.096C1281.63 115.315 1279.97 116 1278.25 116H1218.75C1217.03 116 1215.37 115.315 1214.15 114.096C1212.93 112.877 1212.25 111.224 1212.25 109.5V53.5C1212.25 51.7761 1212.93 50.1228 1214.15 48.9038Z" fill="white"/>
<path fill-rule="evenodd" clip-rule="evenodd" d="M1243.97 75.5251C1245.34 76.892 1245.34 79.108 1243.97 80.4749L1237.7 86.75L1243.97 93.0251C1245.34 94.392 1245.34 96.608 1243.97 97.9749C1242.61 99.3417 1240.39 99.3417 1239.03 97.9749L1230.28 89.2249C1228.91 87.858 1228.91 85.642 1230.28 84.2751L1239.03 75.5251C1240.39 74.1583 1242.61 74.1583 1243.97 75.5251Z" fill="white"/>
<path fill-rule="evenodd" clip-rule="evenodd" d="M1252.28 97.9749C1250.91 96.608 1250.91 94.392 1252.28 93.0251L1258.55 86.75L1252.28 80.4749C1250.91 79.108 1250.91 76.892 1252.28 75.5251C1253.64 74.1583 1255.86 74.1583 1257.22 75.5251L1265.97 84.2751C1267.34 85.642 1267.34 87.858 1265.97 89.2249L1257.22 97.9749C1255.86 99.3417 1253.64 99.3417 1252.28 97.9749Z" fill="white"/>
</svg>
