<svg width="1363" height="163" viewBox="0 0 1363 163" fill="none" xmlns="http://www.w3.org/2000/svg">
<path d="M0 15C0 6.71573 6.71573 0 15 0H37V163H15C6.71573 163 0 156.284 0 148V15Z" fill="#424242"/>
<rect width="1097" height="163" transform="translate(37)" fill="#F0F0F0"/>
<path d="M101.906 53.9219L94.3945 51.2383V48.0859L104.602 52.375V54.6367L101.906 53.9219ZM94.3945 56.1719L101.918 53.4297L104.602 52.7852V55.0352L94.3945 59.3242V56.1719ZM119.895 43.9375V61H116.391V43.9375H119.895ZM125.145 43.9375V46.6914H111.223V43.9375H125.145ZM131.672 61.2344C130.688 61.2344 129.805 61.0781 129.023 60.7656C128.242 60.4453 127.578 60.0039 127.031 59.4414C126.492 58.8789 126.078 58.2266 125.789 57.4844C125.5 56.7344 125.355 55.9375 125.355 55.0938V54.625C125.355 53.6641 125.492 52.7852 125.766 51.9883C126.039 51.1914 126.43 50.5 126.938 49.9141C127.453 49.3281 128.078 48.8789 128.812 48.5664C129.547 48.2461 130.375 48.0859 131.297 48.0859C132.195 48.0859 132.992 48.2344 133.688 48.5312C134.383 48.8281 134.965 49.25 135.434 49.7969C135.91 50.3438 136.27 51 136.512 51.7656C136.754 52.5234 136.875 53.3672 136.875 54.2969V55.7031H126.797V53.4531H133.559V53.1953C133.559 52.7266 133.473 52.3086 133.301 51.9414C133.137 51.5664 132.887 51.2695 132.551 51.0508C132.215 50.832 131.785 50.7227 131.262 50.7227C130.816 50.7227 130.434 50.8203 130.113 51.0156C129.793 51.2109 129.531 51.4844 129.328 51.8359C129.133 52.1875 128.984 52.6016 128.883 53.0781C128.789 53.5469 128.742 54.0625 128.742 54.625V55.0938C128.742 55.6016 128.812 56.0703 128.953 56.5C129.102 56.9297 129.309 57.3008 129.574 57.6133C129.848 57.9258 130.176 58.168 130.559 58.3398C130.949 58.5117 131.391 58.5977 131.883 58.5977C132.492 58.5977 133.059 58.4805 133.582 58.2461C134.113 58.0039 134.57 57.6406 134.953 57.1562L136.594 58.9375C136.328 59.3203 135.965 59.6875 135.504 60.0391C135.051 60.3906 134.504 60.6797 133.863 60.9062C133.223 61.125 132.492 61.2344 131.672 61.2344ZM144.035 58.5977C144.449 58.5977 144.816 58.5195 145.137 58.3633C145.457 58.1992 145.707 57.9727 145.887 57.6836C146.074 57.3867 146.172 57.0391 146.18 56.6406H149.355C149.348 57.5312 149.109 58.3242 148.641 59.0195C148.172 59.707 147.543 60.25 146.754 60.6484C145.965 61.0391 145.082 61.2344 144.105 61.2344C143.121 61.2344 142.262 61.0703 141.527 60.7422C140.801 60.4141 140.195 59.9609 139.711 59.3828C139.227 58.7969 138.863 58.1172 138.621 57.3438C138.379 56.5625 138.258 55.7266 138.258 54.8359V54.4961C138.258 53.5977 138.379 52.7617 138.621 51.9883C138.863 51.207 139.227 50.5273 139.711 49.9492C140.195 49.3633 140.801 48.9062 141.527 48.5781C142.254 48.25 143.105 48.0859 144.082 48.0859C145.121 48.0859 146.031 48.2852 146.812 48.6836C147.602 49.082 148.219 49.6523 148.664 50.3945C149.117 51.1289 149.348 52 149.355 53.0078H146.18C146.172 52.5859 146.082 52.2031 145.91 51.8594C145.746 51.5156 145.504 51.2422 145.184 51.0391C144.871 50.8281 144.484 50.7227 144.023 50.7227C143.531 50.7227 143.129 50.8281 142.816 51.0391C142.504 51.2422 142.262 51.5234 142.09 51.8828C141.918 52.2344 141.797 52.6367 141.727 53.0898C141.664 53.5352 141.633 54.0039 141.633 54.4961V54.8359C141.633 55.3281 141.664 55.8008 141.727 56.2539C141.789 56.707 141.906 57.1094 142.078 57.4609C142.258 57.8125 142.504 58.0898 142.816 58.293C143.129 58.4961 143.535 58.5977 144.035 58.5977ZM154.605 43V61H151.23V43H154.605ZM154.125 54.2148H153.199C153.207 53.332 153.324 52.5195 153.551 51.7773C153.777 51.0273 154.102 50.3789 154.523 49.832C154.945 49.2773 155.449 48.8477 156.035 48.543C156.629 48.2383 157.285 48.0859 158.004 48.0859C158.629 48.0859 159.195 48.1758 159.703 48.3555C160.219 48.5273 160.66 48.8086 161.027 49.1992C161.402 49.582 161.691 50.0859 161.895 50.7109C162.098 51.3359 162.199 52.0938 162.199 52.9844V61H158.801V52.9609C158.801 52.3984 158.719 51.957 158.555 51.6367C158.398 51.3086 158.168 51.0781 157.863 50.9453C157.566 50.8047 157.199 50.7344 156.762 50.7344C156.277 50.7344 155.863 50.8242 155.52 51.0039C155.184 51.1836 154.914 51.4336 154.711 51.7539C154.508 52.0664 154.359 52.4336 154.266 52.8555C154.172 53.2773 154.125 53.7305 154.125 54.2148ZM177.598 54.918H173.25V52.1758H177.598C178.27 52.1758 178.816 52.0664 179.238 51.8477C179.66 51.6211 179.969 51.3086 180.164 50.9102C180.359 50.5117 180.457 50.0625 180.457 49.5625C180.457 49.0547 180.359 48.582 180.164 48.1445C179.969 47.707 179.66 47.3555 179.238 47.0898C178.816 46.8242 178.27 46.6914 177.598 46.6914H174.469V61H170.953V43.9375H177.598C178.934 43.9375 180.078 44.1797 181.031 44.6641C181.992 45.1406 182.727 45.8008 183.234 46.6445C183.742 47.4883 183.996 48.4531 183.996 49.5391C183.996 50.6406 183.742 51.5938 183.234 52.3984C182.727 53.2031 181.992 53.8242 181.031 54.2617C180.078 54.6992 178.934 54.918 177.598 54.918ZM189.586 51.0859V61H186.211V48.3203H189.387L189.586 51.0859ZM193.406 48.2383L193.348 51.3672C193.184 51.3438 192.984 51.3242 192.75 51.3086C192.523 51.2852 192.316 51.2734 192.129 51.2734C191.652 51.2734 191.238 51.3359 190.887 51.4609C190.543 51.5781 190.254 51.7539 190.02 51.9883C189.793 52.2227 189.621 52.5078 189.504 52.8438C189.395 53.1797 189.332 53.5625 189.316 53.9922L188.637 53.7812C188.637 52.9609 188.719 52.207 188.883 51.5195C189.047 50.8242 189.285 50.2188 189.598 49.7031C189.918 49.1875 190.309 48.7891 190.77 48.5078C191.23 48.2266 191.758 48.0859 192.352 48.0859C192.539 48.0859 192.73 48.1016 192.926 48.1328C193.121 48.1562 193.281 48.1914 193.406 48.2383ZM194.109 54.7891V54.543C194.109 53.6133 194.242 52.7578 194.508 51.9766C194.773 51.1875 195.16 50.5039 195.668 49.9258C196.176 49.3477 196.801 48.8984 197.543 48.5781C198.285 48.25 199.137 48.0859 200.098 48.0859C201.059 48.0859 201.914 48.25 202.664 48.5781C203.414 48.8984 204.043 49.3477 204.551 49.9258C205.066 50.5039 205.457 51.1875 205.723 51.9766C205.988 52.7578 206.121 53.6133 206.121 54.543V54.7891C206.121 55.7109 205.988 56.5664 205.723 57.3555C205.457 58.1367 205.066 58.8203 204.551 59.4062C204.043 59.9844 203.418 60.4336 202.676 60.7539C201.934 61.0742 201.082 61.2344 200.121 61.2344C199.16 61.2344 198.305 61.0742 197.555 60.7539C196.812 60.4336 196.184 59.9844 195.668 59.4062C195.16 58.8203 194.773 58.1367 194.508 57.3555C194.242 56.5664 194.109 55.7109 194.109 54.7891ZM197.484 54.543V54.7891C197.484 55.3203 197.531 55.8164 197.625 56.2773C197.719 56.7383 197.867 57.1445 198.07 57.4961C198.281 57.8398 198.555 58.1094 198.891 58.3047C199.227 58.5 199.637 58.5977 200.121 58.5977C200.59 58.5977 200.992 58.5 201.328 58.3047C201.664 58.1094 201.934 57.8398 202.137 57.4961C202.34 57.1445 202.488 56.7383 202.582 56.2773C202.684 55.8164 202.734 55.3203 202.734 54.7891V54.543C202.734 54.0273 202.684 53.543 202.582 53.0898C202.488 52.6289 202.336 52.2227 202.125 51.8711C201.922 51.5117 201.652 51.2305 201.316 51.0273C200.98 50.8242 200.574 50.7227 200.098 50.7227C199.621 50.7227 199.215 50.8242 198.879 51.0273C198.551 51.2305 198.281 51.5117 198.07 51.8711C197.867 52.2227 197.719 52.6289 197.625 53.0898C197.531 53.543 197.484 54.0273 197.484 54.543ZM215.684 58.2344V43H219.082V61H216.023L215.684 58.2344ZM207.668 54.8125V54.5664C207.668 53.5977 207.777 52.7188 207.996 51.9297C208.215 51.1328 208.535 50.4492 208.957 49.8789C209.379 49.3086 209.898 48.8672 210.516 48.5547C211.133 48.2422 211.836 48.0859 212.625 48.0859C213.367 48.0859 214.016 48.2422 214.57 48.5547C215.133 48.8672 215.609 49.3125 216 49.8906C216.398 50.4609 216.719 51.1367 216.961 51.918C217.203 52.6914 217.379 53.5391 217.488 54.4609V55C217.379 55.8828 217.203 56.7031 216.961 57.4609C216.719 58.2188 216.398 58.8828 216 59.4531C215.609 60.0156 215.133 60.4531 214.57 60.7656C214.008 61.0781 213.352 61.2344 212.602 61.2344C211.812 61.2344 211.109 61.0742 210.492 60.7539C209.883 60.4336 209.367 59.9844 208.945 59.4062C208.531 58.8281 208.215 58.1484 207.996 57.3672C207.777 56.5859 207.668 55.7344 207.668 54.8125ZM211.043 54.5664V54.8125C211.043 55.3359 211.082 55.8242 211.16 56.2773C211.246 56.7305 211.383 57.1328 211.57 57.4844C211.766 57.8281 212.016 58.0977 212.32 58.293C212.633 58.4805 213.012 58.5742 213.457 58.5742C214.035 58.5742 214.512 58.4453 214.887 58.1875C215.262 57.9219 215.547 57.5586 215.742 57.0977C215.945 56.6367 216.062 56.1055 216.094 55.5039V53.9688C216.07 53.4766 216 53.0352 215.883 52.6445C215.773 52.2461 215.609 51.9062 215.391 51.625C215.18 51.3438 214.914 51.125 214.594 50.9688C214.281 50.8125 213.91 50.7344 213.48 50.7344C213.043 50.7344 212.668 50.8359 212.355 51.0391C212.043 51.2344 211.789 51.5039 211.594 51.8477C211.406 52.1914 211.266 52.5977 211.172 53.0664C211.086 53.5273 211.043 54.0273 211.043 54.5664ZM229.219 57.9648V48.3203H232.594V61H229.418L229.219 57.9648ZM229.594 55.3633L230.59 55.3398C230.59 56.1836 230.492 56.9688 230.297 57.6953C230.102 58.4141 229.809 59.0391 229.418 59.5703C229.027 60.0938 228.535 60.5039 227.941 60.8008C227.348 61.0898 226.648 61.2344 225.844 61.2344C225.227 61.2344 224.656 61.1484 224.133 60.9766C223.617 60.7969 223.172 60.5195 222.797 60.1445C222.43 59.7617 222.141 59.2734 221.93 58.6797C221.727 58.0781 221.625 57.3555 221.625 56.5117V48.3203H225V56.5352C225 56.9102 225.043 57.2266 225.129 57.4844C225.223 57.7422 225.352 57.9531 225.516 58.1172C225.68 58.2812 225.871 58.3984 226.09 58.4688C226.316 58.5391 226.566 58.5742 226.84 58.5742C227.535 58.5742 228.082 58.4336 228.48 58.1523C228.887 57.8711 229.172 57.4883 229.336 57.0039C229.508 56.5117 229.594 55.9648 229.594 55.3633ZM240.41 58.5977C240.824 58.5977 241.191 58.5195 241.512 58.3633C241.832 58.1992 242.082 57.9727 242.262 57.6836C242.449 57.3867 242.547 57.0391 242.555 56.6406H245.73C245.723 57.5312 245.484 58.3242 245.016 59.0195C244.547 59.707 243.918 60.25 243.129 60.6484C242.34 61.0391 241.457 61.2344 240.48 61.2344C239.496 61.2344 238.637 61.0703 237.902 60.7422C237.176 60.4141 236.57 59.9609 236.086 59.3828C235.602 58.7969 235.238 58.1172 234.996 57.3438C234.754 56.5625 234.633 55.7266 234.633 54.8359V54.4961C234.633 53.5977 234.754 52.7617 234.996 51.9883C235.238 51.207 235.602 50.5273 236.086 49.9492C236.57 49.3633 237.176 48.9062 237.902 48.5781C238.629 48.25 239.48 48.0859 240.457 48.0859C241.496 48.0859 242.406 48.2852 243.188 48.6836C243.977 49.082 244.594 49.6523 245.039 50.3945C245.492 51.1289 245.723 52 245.73 53.0078H242.555C242.547 52.5859 242.457 52.2031 242.285 51.8594C242.121 51.5156 241.879 51.2422 241.559 51.0391C241.246 50.8281 240.859 50.7227 240.398 50.7227C239.906 50.7227 239.504 50.8281 239.191 51.0391C238.879 51.2422 238.637 51.5234 238.465 51.8828C238.293 52.2344 238.172 52.6367 238.102 53.0898C238.039 53.5352 238.008 54.0039 238.008 54.4961V54.8359C238.008 55.3281 238.039 55.8008 238.102 56.2539C238.164 56.707 238.281 57.1094 238.453 57.4609C238.633 57.8125 238.879 58.0898 239.191 58.293C239.504 58.4961 239.91 58.5977 240.41 58.5977ZM253.898 48.3203V50.7109H246.516V48.3203H253.898ZM248.344 45.1914H251.719V57.1797C251.719 57.5469 251.766 57.8281 251.859 58.0234C251.961 58.2188 252.109 58.3555 252.305 58.4336C252.5 58.5039 252.746 58.5391 253.043 58.5391C253.254 58.5391 253.441 58.5312 253.605 58.5156C253.777 58.4922 253.922 58.4688 254.039 58.4453L254.051 60.9297C253.762 61.0234 253.449 61.0977 253.113 61.1523C252.777 61.207 252.406 61.2344 252 61.2344C251.258 61.2344 250.609 61.1133 250.055 60.8711C249.508 60.6211 249.086 60.2227 248.789 59.6758C248.492 59.1289 248.344 58.4102 248.344 57.5195V45.1914ZM268.945 46.8555L264.305 61H260.566L266.906 43.9375H269.285L268.945 46.8555ZM272.801 61L268.148 46.8555L267.773 43.9375H270.176L276.551 61H272.801ZM272.59 54.6484V57.4023H263.578V54.6484H272.59ZM280.852 51.0273V61H277.477V48.3203H280.641L280.852 51.0273ZM280.359 54.2148H279.445C279.445 53.2773 279.566 52.4336 279.809 51.6836C280.051 50.9258 280.391 50.2812 280.828 49.75C281.266 49.2109 281.785 48.8008 282.387 48.5195C282.996 48.2305 283.676 48.0859 284.426 48.0859C285.02 48.0859 285.562 48.1719 286.055 48.3438C286.547 48.5156 286.969 48.7891 287.32 49.1641C287.68 49.5391 287.953 50.0352 288.141 50.6523C288.336 51.2695 288.434 52.0234 288.434 52.9141V61H285.035V52.9023C285.035 52.3398 284.957 51.9023 284.801 51.5898C284.645 51.2773 284.414 51.0586 284.109 50.9336C283.812 50.8008 283.445 50.7344 283.008 50.7344C282.555 50.7344 282.16 50.8242 281.824 51.0039C281.496 51.1836 281.223 51.4336 281.004 51.7539C280.793 52.0664 280.633 52.4336 280.523 52.8555C280.414 53.2773 280.359 53.7305 280.359 54.2148ZM297.844 58.1406V52.4922C297.844 52.0859 297.777 51.7383 297.645 51.4492C297.512 51.1523 297.305 50.9219 297.023 50.7578C296.75 50.5938 296.395 50.5117 295.957 50.5117C295.582 50.5117 295.258 50.5781 294.984 50.7109C294.711 50.8359 294.5 51.0195 294.352 51.2617C294.203 51.4961 294.129 51.7734 294.129 52.0938H290.754C290.754 51.5547 290.879 51.043 291.129 50.5586C291.379 50.0742 291.742 49.6484 292.219 49.2812C292.695 48.9062 293.262 48.6133 293.918 48.4023C294.582 48.1914 295.324 48.0859 296.145 48.0859C297.129 48.0859 298.004 48.25 298.77 48.5781C299.535 48.9062 300.137 49.3984 300.574 50.0547C301.02 50.7109 301.242 51.5312 301.242 52.5156V57.9414C301.242 58.6367 301.285 59.207 301.371 59.6523C301.457 60.0898 301.582 60.4727 301.746 60.8008V61H298.336C298.172 60.6562 298.047 60.2266 297.961 59.7109C297.883 59.1875 297.844 58.6641 297.844 58.1406ZM298.289 53.2773L298.312 55.1875H296.426C295.98 55.1875 295.594 55.2383 295.266 55.3398C294.938 55.4414 294.668 55.5859 294.457 55.7734C294.246 55.9531 294.09 56.1641 293.988 56.4062C293.895 56.6484 293.848 56.9141 293.848 57.2031C293.848 57.4922 293.914 57.7539 294.047 57.9883C294.18 58.2148 294.371 58.3945 294.621 58.5273C294.871 58.6523 295.164 58.7148 295.5 58.7148C296.008 58.7148 296.449 58.6133 296.824 58.4102C297.199 58.207 297.488 57.957 297.691 57.6602C297.902 57.3633 298.012 57.082 298.02 56.8164L298.91 58.2461C298.785 58.5664 298.613 58.8984 298.395 59.2422C298.184 59.5859 297.914 59.9102 297.586 60.2148C297.258 60.5117 296.863 60.7578 296.402 60.9531C295.941 61.1406 295.395 61.2344 294.762 61.2344C293.957 61.2344 293.227 61.0742 292.57 60.7539C291.922 60.4258 291.406 59.9766 291.023 59.4062C290.648 58.8281 290.461 58.1719 290.461 57.4375C290.461 56.7734 290.586 56.1836 290.836 55.668C291.086 55.1523 291.453 54.7188 291.938 54.3672C292.43 54.0078 293.043 53.7383 293.777 53.5586C294.512 53.3711 295.363 53.2773 296.332 53.2773H298.289ZM307.406 43V61H304.02V43H307.406ZM313.957 59.5703L317.32 48.3203H320.941L315.844 62.9102C315.734 63.2305 315.586 63.5742 315.398 63.9414C315.219 64.3086 314.973 64.6562 314.66 64.9844C314.355 65.3203 313.969 65.5938 313.5 65.8047C313.039 66.0156 312.473 66.1211 311.801 66.1211C311.48 66.1211 311.219 66.1016 311.016 66.0625C310.812 66.0234 310.57 65.9688 310.289 65.8984V63.4258C310.375 63.4258 310.465 63.4258 310.559 63.4258C310.652 63.4336 310.742 63.4375 310.828 63.4375C311.273 63.4375 311.637 63.3867 311.918 63.2852C312.199 63.1836 312.426 63.0273 312.598 62.8164C312.77 62.6133 312.906 62.3477 313.008 62.0195L313.957 59.5703ZM312.551 48.3203L315.305 57.5078L315.785 61.082L313.488 61.3281L308.93 48.3203H312.551ZM332.379 58.3633V61H322.746V58.3633H332.379ZM332.191 50.2656L324.105 61H321.844V58.9961L329.895 48.3203H332.191V50.2656ZM330.996 48.3203V50.9688H322.031V48.3203H330.996ZM340.148 61.2344C339.164 61.2344 338.281 61.0781 337.5 60.7656C336.719 60.4453 336.055 60.0039 335.508 59.4414C334.969 58.8789 334.555 58.2266 334.266 57.4844C333.977 56.7344 333.832 55.9375 333.832 55.0938V54.625C333.832 53.6641 333.969 52.7852 334.242 51.9883C334.516 51.1914 334.906 50.5 335.414 49.9141C335.93 49.3281 336.555 48.8789 337.289 48.5664C338.023 48.2461 338.852 48.0859 339.773 48.0859C340.672 48.0859 341.469 48.2344 342.164 48.5312C342.859 48.8281 343.441 49.25 343.91 49.7969C344.387 50.3438 344.746 51 344.988 51.7656C345.23 52.5234 345.352 53.3672 345.352 54.2969V55.7031H335.273V53.4531H342.035V53.1953C342.035 52.7266 341.949 52.3086 341.777 51.9414C341.613 51.5664 341.363 51.2695 341.027 51.0508C340.691 50.832 340.262 50.7227 339.738 50.7227C339.293 50.7227 338.91 50.8203 338.59 51.0156C338.27 51.2109 338.008 51.4844 337.805 51.8359C337.609 52.1875 337.461 52.6016 337.359 53.0781C337.266 53.5469 337.219 54.0625 337.219 54.625V55.0938C337.219 55.6016 337.289 56.0703 337.43 56.5C337.578 56.9297 337.785 57.3008 338.051 57.6133C338.324 57.9258 338.652 58.168 339.035 58.3398C339.426 58.5117 339.867 58.5977 340.359 58.5977C340.969 58.5977 341.535 58.4805 342.059 58.2461C342.59 58.0039 343.047 57.6406 343.43 57.1562L345.07 58.9375C344.805 59.3203 344.441 59.6875 343.98 60.0391C343.527 60.3906 342.98 60.6797 342.34 60.9062C341.699 61.125 340.969 61.2344 340.148 61.2344ZM350.648 51.0859V61H347.273V48.3203H350.449L350.648 51.0859ZM354.469 48.2383L354.41 51.3672C354.246 51.3438 354.047 51.3242 353.812 51.3086C353.586 51.2852 353.379 51.2734 353.191 51.2734C352.715 51.2734 352.301 51.3359 351.949 51.4609C351.605 51.5781 351.316 51.7539 351.082 51.9883C350.855 52.2227 350.684 52.5078 350.566 52.8438C350.457 53.1797 350.395 53.5625 350.379 53.9922L349.699 53.7812C349.699 52.9609 349.781 52.207 349.945 51.5195C350.109 50.8242 350.348 50.2188 350.66 49.7031C350.98 49.1875 351.371 48.7891 351.832 48.5078C352.293 48.2266 352.82 48.0859 353.414 48.0859C353.602 48.0859 353.793 48.1016 353.988 48.1328C354.184 48.1562 354.344 48.1914 354.469 48.2383Z" fill="#888888"/>
<path d="M118.594 98.4219V104.75H101.086V98.4219H118.594ZM103.828 84.875V119H95.6016V84.875H103.828ZM124.125 84.875V119H115.922V84.875H124.125ZM127.992 106.578V106.086C127.992 104.227 128.258 102.516 128.789 100.953C129.32 99.375 130.102 98.0078 131.133 96.8516C132.164 95.6953 133.438 94.7969 134.953 94.1562C136.469 93.5 138.219 93.1719 140.203 93.1719C142.203 93.1719 143.961 93.5 145.477 94.1562C147.008 94.7969 148.289 95.6953 149.32 96.8516C150.352 98.0078 151.133 99.375 151.664 100.953C152.195 102.516 152.461 104.227 152.461 106.086V106.578C152.461 108.422 152.195 110.133 151.664 111.711C151.133 113.273 150.352 114.641 149.32 115.812C148.289 116.969 147.016 117.867 145.5 118.508C143.984 119.148 142.234 119.469 140.25 119.469C138.266 119.469 136.508 119.148 134.977 118.508C133.445 117.867 132.164 116.969 131.133 115.812C130.102 114.641 129.32 113.273 128.789 111.711C128.258 110.133 127.992 108.422 127.992 106.578ZM135.891 106.086V106.578C135.891 107.531 135.961 108.422 136.102 109.25C136.242 110.078 136.477 110.805 136.805 111.43C137.133 112.039 137.578 112.516 138.141 112.859C138.703 113.203 139.406 113.375 140.25 113.375C141.078 113.375 141.766 113.203 142.312 112.859C142.875 112.516 143.32 112.039 143.648 111.43C143.977 110.805 144.211 110.078 144.352 109.25C144.492 108.422 144.562 107.531 144.562 106.578V106.086C144.562 105.164 144.492 104.297 144.352 103.484C144.211 102.656 143.977 101.93 143.648 101.305C143.32 100.664 142.875 100.164 142.312 99.8047C141.75 99.4453 141.047 99.2656 140.203 99.2656C139.375 99.2656 138.68 99.4453 138.117 99.8047C137.57 100.164 137.133 100.664 136.805 101.305C136.477 101.93 136.242 102.656 136.102 103.484C135.961 104.297 135.891 105.164 135.891 106.086ZM163.688 111.453L168.375 93.6406H173.32L171.562 102.57L166.922 119H162.961L163.688 111.453ZM161.836 93.6406L164.742 111.312L165.07 119H160.266L154.266 93.6406H161.836ZM177.492 110.938L180.422 93.6406H187.992L182.039 119H177.234L177.492 110.938ZM173.883 93.6406L178.617 111.406L179.344 119H175.336L170.789 102.617L169.102 93.6406H173.883ZM218.297 84.875V119H210.07V84.875H218.297ZM228.562 84.875V91.2266H200.039V84.875H228.562ZM225.773 106.578V106.086C225.773 104.227 226.039 102.516 226.57 100.953C227.102 99.375 227.883 98.0078 228.914 96.8516C229.945 95.6953 231.219 94.7969 232.734 94.1562C234.25 93.5 236 93.1719 237.984 93.1719C239.984 93.1719 241.742 93.5 243.258 94.1562C244.789 94.7969 246.07 95.6953 247.102 96.8516C248.133 98.0078 248.914 99.375 249.445 100.953C249.977 102.516 250.242 104.227 250.242 106.086V106.578C250.242 108.422 249.977 110.133 249.445 111.711C248.914 113.273 248.133 114.641 247.102 115.812C246.07 116.969 244.797 117.867 243.281 118.508C241.766 119.148 240.016 119.469 238.031 119.469C236.047 119.469 234.289 119.148 232.758 118.508C231.227 117.867 229.945 116.969 228.914 115.812C227.883 114.641 227.102 113.273 226.57 111.711C226.039 110.133 225.773 108.422 225.773 106.578ZM233.672 106.086V106.578C233.672 107.531 233.742 108.422 233.883 109.25C234.023 110.078 234.258 110.805 234.586 111.43C234.914 112.039 235.359 112.516 235.922 112.859C236.484 113.203 237.188 113.375 238.031 113.375C238.859 113.375 239.547 113.203 240.094 112.859C240.656 112.516 241.102 112.039 241.43 111.43C241.758 110.805 241.992 110.078 242.133 109.25C242.273 108.422 242.344 107.531 242.344 106.578V106.086C242.344 105.164 242.273 104.297 242.133 103.484C241.992 102.656 241.758 101.93 241.43 101.305C241.102 100.664 240.656 100.164 240.094 99.8047C239.531 99.4453 238.828 99.2656 237.984 99.2656C237.156 99.2656 236.461 99.4453 235.898 99.8047C235.352 100.164 234.914 100.664 234.586 101.305C234.258 101.93 234.023 102.656 233.883 103.484C233.742 104.297 233.672 105.164 233.672 106.086ZM266.086 84.875H279.516C282.141 84.875 284.422 85.2656 286.359 86.0469C288.297 86.8281 289.789 87.9844 290.836 89.5156C291.898 91.0469 292.43 92.9375 292.43 95.1875C292.43 97.1406 292.125 98.7734 291.516 100.086C290.906 101.398 290.055 102.484 288.961 103.344C287.883 104.188 286.625 104.883 285.188 105.43L282.492 106.953H271.219L271.172 100.602H279.516C280.562 100.602 281.43 100.414 282.117 100.039C282.805 99.6641 283.32 99.1328 283.664 98.4453C284.023 97.7422 284.203 96.9062 284.203 95.9375C284.203 94.9531 284.023 94.1094 283.664 93.4062C283.305 92.7031 282.773 92.1641 282.07 91.7891C281.383 91.4141 280.531 91.2266 279.516 91.2266H274.312V119H266.086V84.875ZM284.766 119L277.219 103.906L285.938 103.859L293.578 118.648V119H284.766ZM311.836 112.836V93.6406H319.758V119H312.352L311.836 112.836ZM312.586 107.68L314.648 107.633C314.648 109.336 314.445 110.914 314.039 112.367C313.633 113.805 313.031 115.055 312.234 116.117C311.453 117.18 310.484 118.008 309.328 118.602C308.188 119.18 306.867 119.469 305.367 119.469C304.117 119.469 302.969 119.297 301.922 118.953C300.891 118.594 300 118.039 299.25 117.289C298.5 116.523 297.914 115.547 297.492 114.359C297.086 113.156 296.883 111.719 296.883 110.047V93.6406H304.781V110.094C304.781 110.656 304.852 111.141 304.992 111.547C305.133 111.953 305.336 112.297 305.602 112.578C305.867 112.844 306.195 113.047 306.586 113.188C306.992 113.312 307.453 113.375 307.969 113.375C309.156 113.375 310.086 113.125 310.758 112.625C311.43 112.125 311.898 111.445 312.164 110.586C312.445 109.727 312.586 108.758 312.586 107.68ZM331.875 99.0547V119H323.977V93.6406H331.383L331.875 99.0547ZM330.938 105.453L329.086 105.5C329.086 103.562 329.32 101.836 329.789 100.32C330.258 98.7891 330.922 97.4922 331.781 96.4297C332.641 95.3672 333.664 94.5625 334.852 94.0156C336.055 93.4531 337.391 93.1719 338.859 93.1719C340.031 93.1719 341.102 93.3438 342.07 93.6875C343.055 94.0312 343.898 94.5859 344.602 95.3516C345.32 96.1172 345.867 97.1328 346.242 98.3984C346.633 99.6484 346.828 101.195 346.828 103.039V119H338.883V103.016C338.883 102 338.742 101.227 338.461 100.695C338.18 100.148 337.773 99.7734 337.242 99.5703C336.711 99.3672 336.062 99.2656 335.297 99.2656C334.484 99.2656 333.797 99.4219 333.234 99.7344C332.672 100.047 332.219 100.484 331.875 101.047C331.547 101.594 331.305 102.242 331.148 102.992C331.008 103.742 330.938 104.562 330.938 105.453ZM363.773 108.195H357.047C357.047 106.82 357.141 105.609 357.328 104.562C357.531 103.5 357.875 102.547 358.359 101.703C358.844 100.859 359.5 100.078 360.328 99.3594C361.062 98.75 361.695 98.1641 362.227 97.6016C362.758 97.0391 363.164 96.4688 363.445 95.8906C363.727 95.3125 363.867 94.6953 363.867 94.0391C363.867 93.2266 363.75 92.5625 363.516 92.0469C363.297 91.5312 362.961 91.1484 362.508 90.8984C362.07 90.6328 361.516 90.5 360.844 90.5C360.297 90.5 359.781 90.6328 359.297 90.8984C358.828 91.1641 358.445 91.5781 358.148 92.1406C357.852 92.6875 357.688 93.4141 357.656 94.3203H349.711C349.758 91.9922 350.273 90.1016 351.258 88.6484C352.258 87.1797 353.586 86.1094 355.242 85.4375C356.914 84.75 358.781 84.4062 360.844 84.4062C363.125 84.4062 365.086 84.7578 366.727 85.4609C368.367 86.1641 369.625 87.2109 370.5 88.6016C371.375 89.9766 371.812 91.6719 371.812 93.6875C371.812 95.0312 371.555 96.2031 371.039 97.2031C370.539 98.1875 369.859 99.1094 369 99.9688C368.156 100.812 367.211 101.719 366.164 102.688C365.258 103.484 364.641 104.297 364.312 105.125C363.984 105.938 363.805 106.961 363.773 108.195ZM356.086 115.32C356.086 114.195 356.492 113.258 357.305 112.508C358.117 111.742 359.172 111.359 360.469 111.359C361.766 111.359 362.82 111.742 363.633 112.508C364.445 113.258 364.852 114.195 364.852 115.32C364.852 116.445 364.445 117.391 363.633 118.156C362.82 118.906 361.766 119.281 360.469 119.281C359.172 119.281 358.117 118.906 357.305 118.156C356.492 117.391 356.086 116.445 356.086 115.32Z" fill="black"/>
<path d="M1134 0H1348C1356.28 0 1363 6.71573 1363 15V148C1363 156.284 1356.28 163 1348 163H1134V0Z" fill="#004AAD"/>
<path d="M1260.62 78.8078C1263.81 78.8078 1266.93 79.7552 1269.59 81.5302C1272.25 83.3052 1274.32 85.8281 1275.54 88.7798C1276.76 91.7315 1277.08 94.9795 1276.46 98.1131C1275.84 101.247 1274.3 104.125 1272.04 106.384C1269.78 108.643 1266.9 110.182 1263.77 110.805C1260.63 111.428 1257.39 111.108 1254.43 109.886C1251.48 108.663 1248.96 106.593 1247.18 103.936C1245.41 101.28 1244.46 98.1565 1244.46 94.9616C1244.46 90.6774 1246.16 86.5686 1249.19 83.5392C1252.22 80.5097 1256.33 78.8078 1260.62 78.8078ZM1260.62 73.4232C1256.36 73.4232 1252.19 74.6864 1248.65 77.0531C1245.11 79.4198 1242.35 82.7836 1240.72 86.7192C1239.09 90.6549 1238.66 94.9855 1239.49 99.1636C1240.32 103.342 1242.37 107.179 1245.39 110.192C1248.4 113.204 1252.24 115.255 1256.41 116.086C1260.59 116.917 1264.92 116.491 1268.86 114.861C1272.79 113.23 1276.16 110.47 1278.52 106.928C1280.89 103.386 1282.15 99.2215 1282.15 94.9616C1282.15 89.2493 1279.88 83.7709 1275.85 79.7317C1271.81 75.6924 1266.33 73.4232 1260.62 73.4232Z" fill="white"/>
<path d="M1274.08 46.4999H1220.23C1218.8 46.4999 1217.43 47.0672 1216.42 48.0771C1215.41 49.0869 1214.85 50.4565 1214.85 51.8845V105.731C1214.85 107.159 1215.41 108.528 1216.42 109.538C1217.43 110.548 1218.8 111.115 1220.23 111.115H1231V105.731H1220.23V68.0383H1279.46V51.8845C1279.46 50.4565 1278.89 49.0869 1277.88 48.0771C1276.87 47.0672 1275.5 46.4999 1274.08 46.4999ZM1220.23 62.6537V51.8845H1274.08V62.6537H1220.23Z" fill="white"/>
<path d="M1255.23 86.8848V103.039L1268.69 94.9617L1255.23 86.8848Z" fill="white"/>
</svg>
